<?xml version="1.0" encoding="utf-8" standalone="no"?>
<!DOCTYPE svg PUBLIC "-//W3C//DTD SVG 1.1//EN"
  "http://www.w3.org/Graphics/SVG/1.1/DTD/svg11.dtd">
<svg xmlns:xlink="http://www.w3.org/1999/xlink" width="1728pt" height="720pt" viewBox="0 0 1728 720" xmlns="http://www.w3.org/2000/svg" version="1.1">
 <metadata>
  <rdf:RDF xmlns:dc="http://purl.org/dc/elements/1.1/" xmlns:cc="http://creativecommons.org/ns#" xmlns:rdf="http://www.w3.org/1999/02/22-rdf-syntax-ns#">
   <cc:Work>
    <dc:type rdf:resource="http://purl.org/dc/dcmitype/StillImage"/>
    <dc:date>2024-07-08T14:53:06.672672</dc:date>
    <dc:format>image/svg+xml</dc:format>
    <dc:creator>
     <cc:Agent>
      <dc:title>Matplotlib v3.8.4, https://matplotlib.org/</dc:title>
     </cc:Agent>
    </dc:creator>
   </cc:Work>
  </rdf:RDF>
 </metadata>
 <defs>
  <style type="text/css">*{stroke-linejoin: round; stroke-linecap: butt}</style>
 </defs>
 <g id="figure_1">
  <g id="patch_1">
   <path d="M 0 720 
L 1728 720 
L 1728 0 
L 0 0 
z
" style="fill: #ffffff"/>
  </g>
  <g id="axes_1">
   <g id="patch_2">
    <path d="M 216 640.8 
L 1555.2 640.8 
L 1555.2 86.4 
L 216 86.4 
z
" style="fill: #ffffff"/>
   </g>
   <g id="patch_3">
    <path d="M 276.872727 1453674.055796 
L 283.000854 1453674.055796 
L 283.000854 191.924988 
L 276.872727 191.924988 
z
" clip-path="url(#p31f22b56d7)" style="fill: #1f77b4"/>
   </g>
   <g id="patch_4">
    <path d="M 358.581086 1453674.055796 
L 364.709213 1453674.055796 
L 364.709213 202.59596 
L 358.581086 202.59596 
z
" clip-path="url(#p31f22b56d7)" style="fill: #1f77b4"/>
   </g>
   <g id="patch_5">
    <path d="M 440.289445 1453674.055796 
L 446.417572 1453674.055796 
L 446.417572 205.833027 
L 440.289445 205.833027 
z
" clip-path="url(#p31f22b56d7)" style="fill: #1f77b4"/>
   </g>
   <g id="patch_6">
    <path d="M 521.997804 1453674.055796 
L 528.12593 1453674.055796 
L 528.12593 230.096905 
L 521.997804 230.096905 
z
" clip-path="url(#p31f22b56d7)" style="fill: #1f77b4"/>
   </g>
   <g id="patch_7">
    <path d="M 603.706162 1453674.055796 
L 609.834289 1453674.055796 
L 609.834289 258.860954 
L 603.706162 258.860954 
z
" clip-path="url(#p31f22b56d7)" style="fill: #1f77b4"/>
   </g>
   <g id="patch_8">
    <path d="M 685.414521 1453674.055796 
L 691.542648 1453674.055796 
L 691.542648 274.357124 
L 685.414521 274.357124 
z
" clip-path="url(#p31f22b56d7)" style="fill: #1f77b4"/>
   </g>
   <g id="patch_9">
    <path d="M 767.12288 1453674.055796 
L 773.251007 1453674.055796 
L 773.251007 307.821094 
L 767.12288 307.821094 
z
" clip-path="url(#p31f22b56d7)" style="fill: #1f77b4"/>
   </g>
   <g id="patch_10">
    <path d="M 848.831239 1453674.055796 
L 854.959365 1453674.055796 
L 854.959365 273.151405 
L 848.831239 273.151405 
z
" clip-path="url(#p31f22b56d7)" style="fill: #1f77b4"/>
   </g>
   <g id="patch_11">
    <path d="M 930.539597 1453674.055796 
L 936.667724 1453674.055796 
L 936.667724 289.009743 
L 930.539597 289.009743 
z
" clip-path="url(#p31f22b56d7)" style="fill: #1f77b4"/>
   </g>
   <g id="patch_12">
    <path d="M 1012.247956 1453674.055796 
L 1018.376083 1453674.055796 
L 1018.376083 323.287829 
L 1012.247956 323.287829 
z
" clip-path="url(#p31f22b56d7)" style="fill: #1f77b4"/>
   </g>
   <g id="patch_13">
    <path d="M 1093.956315 1453674.055796 
L 1100.084442 1453674.055796 
L 1100.084442 331.166812 
L 1093.956315 331.166812 
z
" clip-path="url(#p31f22b56d7)" style="fill: #1f77b4"/>
   </g>
   <g id="patch_14">
    <path d="M 1175.664674 1453674.055796 
L 1181.7928 1453674.055796 
L 1181.7928 360.935178 
L 1175.664674 360.935178 
z
" clip-path="url(#p31f22b56d7)" style="fill: #1f77b4"/>
   </g>
   <g id="patch_15">
    <path d="M 1257.373032 1453674.055796 
L 1263.501159 1453674.055796 
L 1263.501159 389.282591 
L 1257.373032 389.282591 
z
" clip-path="url(#p31f22b56d7)" style="fill: #1f77b4"/>
   </g>
   <g id="patch_16">
    <path d="M 1339.081391 1453674.055796 
L 1345.209518 1453674.055796 
L 1345.209518 409.917852 
L 1339.081391 409.917852 
z
" clip-path="url(#p31f22b56d7)" style="fill: #1f77b4"/>
   </g>
   <g id="patch_17">
    <path d="M 1420.78975 1453674.055796 
L 1426.917877 1453674.055796 
L 1426.917877 442.204236 
L 1420.78975 442.204236 
z
" clip-path="url(#p31f22b56d7)" style="fill: #1f77b4"/>
   </g>
   <g id="patch_18">
    <path d="M 283.000854 1453674.055796 
L 289.128981 1453674.055796 
L 289.128981 118.149121 
L 283.000854 118.149121 
z
" clip-path="url(#p31f22b56d7)" style="fill: url(#ha283a1aeda)"/>
   </g>
   <g id="patch_19">
    <path d="M 364.709213 1453674.055796 
L 370.83734 1453674.055796 
L 370.83734 139.189511 
L 364.709213 139.189511 
z
" clip-path="url(#p31f22b56d7)" style="fill: url(#ha283a1aeda)"/>
   </g>
   <g id="patch_20">
    <path d="M 446.417572 1453674.055796 
L 452.545699 1453674.055796 
L 452.545699 142.114206 
L 446.417572 142.114206 
z
" clip-path="url(#p31f22b56d7)" style="fill: url(#ha283a1aeda)"/>
   </g>
   <g id="patch_21">
    <path d="M 528.12593 1453674.055796 
L 534.254057 1453674.055796 
L 534.254057 181.432768 
L 528.12593 181.432768 
z
" clip-path="url(#p31f22b56d7)" style="fill: url(#ha283a1aeda)"/>
   </g>
   <g id="patch_22">
    <path d="M 609.834289 1453674.055796 
L 615.962416 1453674.055796 
L 615.962416 205.833027 
L 609.834289 205.833027 
z
" clip-path="url(#p31f22b56d7)" style="fill: url(#ha283a1aeda)"/>
   </g>
   <g id="patch_23">
    <path d="M 691.542648 1453674.055796 
L 697.670775 1453674.055796 
L 697.670775 257.684671 
L 691.542648 257.684671 
z
" clip-path="url(#p31f22b56d7)" style="fill: url(#ha283a1aeda)"/>
   </g>
   <g id="patch_24">
    <path d="M 773.251007 1453674.055796 
L 779.379134 1453674.055796 
L 779.379134 238.018594 
L 773.251007 238.018594 
z
" clip-path="url(#p31f22b56d7)" style="fill: url(#ha283a1aeda)"/>
   </g>
   <g id="patch_25">
    <path d="M 854.959365 1453674.055796 
L 861.087492 1453674.055796 
L 861.087492 200.447173 
L 854.959365 200.447173 
z
" clip-path="url(#p31f22b56d7)" style="fill: url(#ha283a1aeda)"/>
   </g>
   <g id="patch_26">
    <path d="M 936.667724 1453674.055796 
L 942.795851 1453674.055796 
L 942.795851 212.357783 
L 936.667724 212.357783 
z
" clip-path="url(#p31f22b56d7)" style="fill: url(#ha283a1aeda)"/>
   </g>
   <g id="patch_27">
    <path d="M 1018.376083 1453674.055796 
L 1024.50421 1453674.055796 
L 1024.50421 226.732327 
L 1018.376083 226.732327 
z
" clip-path="url(#p31f22b56d7)" style="fill: url(#ha283a1aeda)"/>
   </g>
   <g id="patch_28">
    <path d="M 1100.084442 1453674.055796 
L 1106.212569 1453674.055796 
L 1106.212569 236.880772 
L 1100.084442 236.880772 
z
" clip-path="url(#p31f22b56d7)" style="fill: url(#ha283a1aeda)"/>
   </g>
   <g id="patch_29">
    <path d="M 1181.7928 1453674.055796 
L 1187.920927 1453674.055796 
L 1187.920927 277.98827 
L 1181.7928 277.98827 
z
" clip-path="url(#p31f22b56d7)" style="fill: url(#ha283a1aeda)"/>
   </g>
   <g id="patch_30">
    <path d="M 1263.501159 1453674.055796 
L 1269.629286 1453674.055796 
L 1269.629286 286.543713 
L 1263.501159 286.543713 
z
" clip-path="url(#p31f22b56d7)" style="fill: url(#ha283a1aeda)"/>
   </g>
   <g id="patch_31">
    <path d="M 1345.209518 1453674.055796 
L 1351.337645 1453674.055796 
L 1351.337645 306.549275 
L 1345.209518 306.549275 
z
" clip-path="url(#p31f22b56d7)" style="fill: url(#ha283a1aeda)"/>
   </g>
   <g id="patch_32">
    <path d="M 1426.917877 1453674.055796 
L 1433.046004 1453674.055796 
L 1433.046004 312.934355 
L 1426.917877 312.934355 
z
" clip-path="url(#p31f22b56d7)" style="fill: url(#ha283a1aeda)"/>
   </g>
   <g id="patch_33">
    <path d="M 289.128981 1453674.055796 
L 295.257108 1453674.055796 
L 295.257108 182.474116 
L 289.128981 182.474116 
z
" clip-path="url(#p31f22b56d7)" style="fill: #2ca02c"/>
   </g>
   <g id="patch_34">
    <path d="M 370.83734 1453674.055796 
L 376.965467 1453674.055796 
L 376.965467 201.520645 
L 370.83734 201.520645 
z
" clip-path="url(#p31f22b56d7)" style="fill: #2ca02c"/>
   </g>
   <g id="patch_35">
    <path d="M 452.545699 1453674.055796 
L 458.673826 1453674.055796 
L 458.673826 186.656909 
L 452.545699 186.656909 
z
" clip-path="url(#p31f22b56d7)" style="fill: #2ca02c"/>
   </g>
   <g id="patch_36">
    <path d="M 534.254057 1453674.055796 
L 540.382184 1453674.055796 
L 540.382184 230.096905 
L 534.254057 230.096905 
z
" clip-path="url(#p31f22b56d7)" style="fill: #2ca02c"/>
   </g>
   <g id="patch_37">
    <path d="M 615.962416 1453674.055796 
L 622.090543 1453674.055796 
L 622.090543 248.353088 
L 615.962416 248.353088 
z
" clip-path="url(#p31f22b56d7)" style="fill: #2ca02c"/>
   </g>
   <g id="patch_38">
    <path d="M 697.670775 1453674.055796 
L 703.798902 1453674.055796 
L 703.798902 262.403118 
L 697.670775 262.403118 
z
" clip-path="url(#p31f22b56d7)" style="fill: #2ca02c"/>
   </g>
   <g id="patch_39">
    <path d="M 779.379134 1453674.055796 
L 785.507261 1453674.055796 
L 785.507261 296.466628 
L 779.379134 296.466628 
z
" clip-path="url(#p31f22b56d7)" style="fill: #2ca02c"/>
   </g>
   <g id="patch_40">
    <path d="M 861.087492 1453674.055796 
L 867.215619 1453674.055796 
L 867.215619 267.157379 
L 861.087492 267.157379 
z
" clip-path="url(#p31f22b56d7)" style="fill: #2ca02c"/>
   </g>
   <g id="patch_41">
    <path d="M 942.795851 1453674.055796 
L 948.923978 1453674.055796 
L 948.923978 291.485521 
L 942.795851 291.485521 
z
" clip-path="url(#p31f22b56d7)" style="fill: #2ca02c"/>
   </g>
   <g id="patch_42">
    <path d="M 1024.50421 1453674.055796 
L 1030.632337 1453674.055796 
L 1030.632337 305.280032 
L 1024.50421 305.280032 
z
" clip-path="url(#p31f22b56d7)" style="fill: #2ca02c"/>
   </g>
   <g id="patch_43">
    <path d="M 1106.212569 1453674.055796 
L 1112.340696 1453674.055796 
L 1112.340696 335.143784 
L 1106.212569 335.143784 
z
" clip-path="url(#p31f22b56d7)" style="fill: #2ca02c"/>
   </g>
   <g id="patch_44">
    <path d="M 1187.920927 1453674.055796 
L 1194.049054 1453674.055796 
L 1194.049054 366.502957 
L 1187.920927 366.502957 
z
" clip-path="url(#p31f22b56d7)" style="fill: #2ca02c"/>
   </g>
   <g id="patch_45">
    <path d="M 1269.629286 1453674.055796 
L 1275.757413 1453674.055796 
L 1275.757413 393.647563 
L 1269.629286 393.647563 
z
" clip-path="url(#p31f22b56d7)" style="fill: #2ca02c"/>
   </g>
   <g id="patch_46">
    <path d="M 1351.337645 1453674.055796 
L 1357.465772 1453674.055796 
L 1357.465772 422.022014 
L 1351.337645 422.022014 
z
" clip-path="url(#p31f22b56d7)" style="fill: #2ca02c"/>
   </g>
   <g id="patch_47">
    <path d="M 1433.046004 1453674.055796 
L 1439.174131 1453674.055796 
L 1439.174131 448.547287 
L 1433.046004 448.547287 
z
" clip-path="url(#p31f22b56d7)" style="fill: #2ca02c"/>
   </g>
   <g id="patch_48">
    <path d="M 295.257108 1453674.055796 
L 301.385235 1453674.055796 
L 301.385235 111.6 
L 295.257108 111.6 
z
" clip-path="url(#p31f22b56d7)" style="fill: url(#h92a15ac7d6)"/>
   </g>
   <g id="patch_49">
    <path d="M 376.965467 1453674.055796 
L 383.093594 1453674.055796 
L 383.093594 154.948101 
L 376.965467 154.948101 
z
" clip-path="url(#p31f22b56d7)" style="fill: url(#h92a15ac7d6)"/>
   </g>
   <g id="patch_50">
    <path d="M 458.673826 1453674.055796 
L 464.801952 1453674.055796 
L 464.801952 146.035163 
L 458.673826 146.035163 
z
" clip-path="url(#p31f22b56d7)" style="fill: url(#h92a15ac7d6)"/>
   </g>
   <g id="patch_51">
    <path d="M 540.382184 1453674.055796 
L 546.510311 1453674.055796 
L 546.510311 174.191405 
L 540.382184 174.191405 
z
" clip-path="url(#p31f22b56d7)" style="fill: url(#h92a15ac7d6)"/>
   </g>
   <g id="patch_52">
    <path d="M 622.090543 1453674.055796 
L 628.21867 1453674.055796 
L 628.21867 194.044689 
L 622.090543 194.044689 
z
" clip-path="url(#p31f22b56d7)" style="fill: url(#h92a15ac7d6)"/>
   </g>
   <g id="patch_53">
    <path d="M 703.798902 1453674.055796 
L 709.927029 1453674.055796 
L 709.927029 242.590665 
L 703.798902 242.590665 
z
" clip-path="url(#p31f22b56d7)" style="fill: url(#h92a15ac7d6)"/>
   </g>
   <g id="patch_54">
    <path d="M 785.507261 1453674.055796 
L 791.635387 1453674.055796 
L 791.635387 231.22246 
L 785.507261 231.22246 
z
" clip-path="url(#p31f22b56d7)" style="fill: url(#h92a15ac7d6)"/>
   </g>
   <g id="patch_55">
    <path d="M 867.215619 1453674.055796 
L 873.343746 1453674.055796 
L 873.343746 192.983942 
L 867.215619 192.983942 
z
" clip-path="url(#p31f22b56d7)" style="fill: url(#h92a15ac7d6)"/>
   </g>
   <g id="patch_56">
    <path d="M 948.923978 1453674.055796 
L 955.052105 1453674.055796 
L 955.052105 203.673125 
L 948.923978 203.673125 
z
" clip-path="url(#p31f22b56d7)" style="fill: url(#h92a15ac7d6)"/>
   </g>
   <g id="patch_57">
    <path d="M 1030.632337 1453674.055796 
L 1036.760464 1453674.055796 
L 1036.760464 223.385724 
L 1030.632337 223.385724 
z
" clip-path="url(#p31f22b56d7)" style="fill: url(#h92a15ac7d6)"/>
   </g>
   <g id="patch_58">
    <path d="M 1112.340696 1453674.055796 
L 1118.468822 1453674.055796 
L 1118.468822 228.97337 
L 1112.340696 228.97337 
z
" clip-path="url(#p31f22b56d7)" style="fill: url(#h92a15ac7d6)"/>
   </g>
   <g id="patch_59">
    <path d="M 1194.049054 1453674.055796 
L 1200.177181 1453674.055796 
L 1200.177181 276.775548 
L 1194.049054 276.775548 
z
" clip-path="url(#p31f22b56d7)" style="fill: url(#h92a15ac7d6)"/>
   </g>
   <g id="patch_60">
    <path d="M 1275.757413 1453674.055796 
L 1281.88554 1453674.055796 
L 1281.88554 285.314329 
L 1275.757413 285.314329 
z
" clip-path="url(#p31f22b56d7)" style="fill: url(#h92a15ac7d6)"/>
   </g>
   <g id="patch_61">
    <path d="M 1357.465772 1453674.055796 
L 1363.593899 1453674.055796 
L 1363.593899 304.013357 
L 1357.465772 304.013357 
z
" clip-path="url(#p31f22b56d7)" style="fill: url(#h92a15ac7d6)"/>
   </g>
   <g id="patch_62">
    <path d="M 1439.174131 1453674.055796 
L 1445.302257 1453674.055796 
L 1445.302257 312.934355 
L 1439.174131 312.934355 
z
" clip-path="url(#p31f22b56d7)" style="fill: url(#h92a15ac7d6)"/>
   </g>
   <g id="patch_63">
    <path d="M 301.385235 1453674.055796 
L 307.513362 1453674.055796 
L 307.513362 167.032802 
L 301.385235 167.032802 
z
" clip-path="url(#p31f22b56d7)" style="fill: #9467bd"/>
   </g>
   <g id="patch_64">
    <path d="M 383.093594 1453674.055796 
L 389.221721 1453674.055796 
L 389.221721 195.107235 
L 383.093594 195.107235 
z
" clip-path="url(#p31f22b56d7)" style="fill: #9467bd"/>
   </g>
   <g id="patch_65">
    <path d="M 464.801952 1453674.055796 
L 470.930079 1453674.055796 
L 470.930079 224.499273 
L 464.801952 224.499273 
z
" clip-path="url(#p31f22b56d7)" style="fill: #9467bd"/>
   </g>
   <g id="patch_66">
    <path d="M 546.510311 1453674.055796 
L 552.638438 1453674.055796 
L 552.638438 250.672983 
L 546.510311 250.672983 
z
" clip-path="url(#p31f22b56d7)" style="fill: #9467bd"/>
   </g>
   <g id="patch_67">
    <path d="M 628.21867 1453674.055796 
L 634.346797 1453674.055796 
L 634.346797 275.565169 
L 628.21867 275.565169 
z
" clip-path="url(#p31f22b56d7)" style="fill: #9467bd"/>
   </g>
   <g id="patch_68">
    <path d="M 709.927029 1453674.055796 
L 716.055156 1453674.055796 
L 716.055156 291.485521 
L 709.927029 291.485521 
z
" clip-path="url(#p31f22b56d7)" style="fill: #9467bd"/>
   </g>
   <g id="patch_69">
    <path d="M 791.635387 1453674.055796 
L 797.763514 1453674.055796 
L 797.763514 329.846746 
L 791.635387 329.846746 
z
" clip-path="url(#p31f22b56d7)" style="fill: #9467bd"/>
   </g>
   <g id="patch_70">
    <path d="M 873.343746 1453674.055796 
L 879.471873 1453674.055796 
L 879.471873 379.214415 
L 873.343746 379.214415 
z
" clip-path="url(#p31f22b56d7)" style="fill: #9467bd"/>
   </g>
   <g id="patch_71">
    <path d="M 955.052105 1453674.055796 
L 961.180232 1453674.055796 
L 961.180232 399.515249 
L 955.052105 399.515249 
z
" clip-path="url(#p31f22b56d7)" style="fill: #9467bd"/>
   </g>
   <g id="patch_72">
    <path d="M 1036.760464 1453674.055796 
L 1042.888591 1453674.055796 
L 1042.888591 448.547287 
L 1036.760464 448.547287 
z
" clip-path="url(#p31f22b56d7)" style="fill: #9467bd"/>
   </g>
   <g id="patch_73">
    <path d="M 1118.468822 1453674.055796 
L 1124.596949 1453674.055796 
L 1124.596949 506.973052 
L 1118.468822 506.973052 
z
" clip-path="url(#p31f22b56d7)" style="fill: #9467bd"/>
   </g>
   <g id="patch_74">
    <path d="M 1200.177181 1453674.055796 
L 1206.305308 1453674.055796 
L 1206.305308 526.520964 
L 1200.177181 526.520964 
z
" clip-path="url(#p31f22b56d7)" style="fill: #9467bd"/>
   </g>
   <g id="patch_75">
    <path d="M 1281.88554 1453674.055796 
L 1288.013667 1453674.055796 
L 1288.013667 542.981293 
L 1281.88554 542.981293 
z
" clip-path="url(#p31f22b56d7)" style="fill: #9467bd"/>
   </g>
   <g id="patch_76">
    <path d="M 1363.593899 1453674.055796 
L 1369.722026 1453674.055796 
L 1369.722026 569.478273 
L 1363.593899 569.478273 
z
" clip-path="url(#p31f22b56d7)" style="fill: #9467bd"/>
   </g>
   <g id="patch_77">
    <path d="M 1445.302257 1453674.055796 
L 1451.430384 1453674.055796 
L 1451.430384 615.6 
L 1445.302257 615.6 
z
" clip-path="url(#p31f22b56d7)" style="fill: #9467bd"/>
   </g>
   <g id="patch_78">
    <path d="M 307.513362 1453674.055796 
L 313.641489 1453674.055796 
L 313.641489 133.380775 
L 307.513362 133.380775 
z
" clip-path="url(#p31f22b56d7)" style="fill: url(#hfc478f43ca)"/>
   </g>
   <g id="patch_79">
    <path d="M 389.221721 1453674.055796 
L 395.349847 1453674.055796 
L 395.349847 150.97113 
L 389.221721 150.97113 
z
" clip-path="url(#p31f22b56d7)" style="fill: url(#hfc478f43ca)"/>
   </g>
   <g id="patch_80">
    <path d="M 470.930079 1453674.055796 
L 477.058206 1453674.055796 
L 477.058206 153.951489 
L 470.930079 153.951489 
z
" clip-path="url(#p31f22b56d7)" style="fill: url(#hfc478f43ca)"/>
   </g>
   <g id="patch_81">
    <path d="M 552.638438 1453674.055796 
L 558.766565 1453674.055796 
L 558.766565 161.969146 
L 552.638438 161.969146 
z
" clip-path="url(#p31f22b56d7)" style="fill: url(#hfc478f43ca)"/>
   </g>
   <g id="patch_82">
    <path d="M 634.346797 1453674.055796 
L 640.474924 1453674.055796 
L 640.474924 160.961308 
L 634.346797 160.961308 
z
" clip-path="url(#p31f22b56d7)" style="fill: url(#hfc478f43ca)"/>
   </g>
   <g id="patch_83">
    <path d="M 716.055156 1453674.055796 
L 722.183282 1453674.055796 
L 722.183282 167.032802 
L 716.055156 167.032802 
z
" clip-path="url(#p31f22b56d7)" style="fill: url(#hfc478f43ca)"/>
   </g>
   <g id="patch_84">
    <path d="M 797.763514 1453674.055796 
L 803.891641 1453674.055796 
L 803.891641 171.113409 
L 797.763514 171.113409 
z
" clip-path="url(#p31f22b56d7)" style="fill: url(#hfc478f43ca)"/>
   </g>
   <g id="patch_85">
    <path d="M 879.471873 1453674.055796 
L 885.6 1453674.055796 
L 885.6 217.847484 
L 879.471873 217.847484 
z
" clip-path="url(#p31f22b56d7)" style="fill: url(#hfc478f43ca)"/>
   </g>
   <g id="patch_86">
    <path d="M 961.180232 1453674.055796 
L 967.308359 1453674.055796 
L 967.308359 223.385724 
L 961.180232 223.385724 
z
" clip-path="url(#p31f22b56d7)" style="fill: url(#hfc478f43ca)"/>
   </g>
   <g id="patch_87">
    <path d="M 1042.888591 1453674.055796 
L 1049.016718 1453674.055796 
L 1049.016718 244.889277 
L 1042.888591 244.889277 
z
" clip-path="url(#p31f22b56d7)" style="fill: url(#hfc478f43ca)"/>
   </g>
   <g id="patch_88">
    <path d="M 1124.596949 1453674.055796 
L 1130.725076 1453674.055796 
L 1130.725076 246.041753 
L 1124.596949 246.041753 
z
" clip-path="url(#p31f22b56d7)" style="fill: url(#hfc478f43ca)"/>
   </g>
   <g id="patch_89">
    <path d="M 1206.305308 1453674.055796 
L 1212.433435 1453674.055796 
L 1212.433435 286.543713 
L 1206.305308 286.543713 
z
" clip-path="url(#p31f22b56d7)" style="fill: url(#hfc478f43ca)"/>
   </g>
   <g id="patch_90">
    <path d="M 1288.013667 1453674.055796 
L 1294.141794 1453674.055796 
L 1294.141794 306.549275 
L 1288.013667 306.549275 
z
" clip-path="url(#p31f22b56d7)" style="fill: url(#hfc478f43ca)"/>
   </g>
   <g id="patch_91">
    <path d="M 1369.722026 1453674.055796 
L 1375.850153 1453674.055796 
L 1375.850153 310.372507 
L 1369.722026 310.372507 
z
" clip-path="url(#p31f22b56d7)" style="fill: url(#hfc478f43ca)"/>
   </g>
   <g id="patch_92">
    <path d="M 1451.430384 1453674.055796 
L 1457.558511 1453674.055796 
L 1457.558511 328.529457 
L 1451.430384 328.529457 
z
" clip-path="url(#p31f22b56d7)" style="fill: url(#hfc478f43ca)"/>
   </g>
   <g id="patch_93">
    <path d="M 313.641489 1453674.055796 
L 319.769616 1453674.055796 
L 319.769616 176.251837 
L 313.641489 176.251837 
z
" clip-path="url(#p31f22b56d7)" style="fill: #e377c2"/>
   </g>
   <g id="patch_94">
    <path d="M 395.349847 1453674.055796 
L 401.477974 1453674.055796 
L 401.477974 190.867822 
L 395.349847 190.867822 
z
" clip-path="url(#p31f22b56d7)" style="fill: #e377c2"/>
   </g>
   <g id="patch_95">
    <path d="M 477.058206 1453674.055796 
L 483.186333 1453674.055796 
L 483.186333 213.451881 
L 477.058206 213.451881 
z
" clip-path="url(#p31f22b56d7)" style="fill: #e377c2"/>
   </g>
   <g id="patch_96">
    <path d="M 558.766565 1453674.055796 
L 564.894692 1453674.055796 
L 564.894692 247.196354 
L 558.766565 247.196354 
z
" clip-path="url(#p31f22b56d7)" style="fill: #e377c2"/>
   </g>
   <g id="patch_97">
    <path d="M 640.474924 1453674.055796 
L 646.603051 1453674.055796 
L 646.603051 254.169015 
L 640.474924 254.169015 
z
" clip-path="url(#p31f22b56d7)" style="fill: #e377c2"/>
   </g>
   <g id="patch_98">
    <path d="M 722.183282 1453674.055796 
L 728.311409 1453674.055796 
L 728.311409 269.548111 
L 722.183282 269.548111 
z
" clip-path="url(#p31f22b56d7)" style="fill: #e377c2"/>
   </g>
   <g id="patch_99">
    <path d="M 803.891641 1453674.055796 
L 810.019768 1453674.055796 
L 810.019768 274.357124 
L 803.891641 274.357124 
z
" clip-path="url(#p31f22b56d7)" style="fill: #e377c2"/>
   </g>
   <g id="patch_100">
    <path d="M 885.6 1453674.055796 
L 891.728127 1453674.055796 
L 891.728127 318.0897 
L 885.6 318.0897 
z
" clip-path="url(#p31f22b56d7)" style="fill: #e377c2"/>
   </g>
   <g id="patch_101">
    <path d="M 967.308359 1453674.055796 
L 973.436486 1453674.055796 
L 973.436486 352.675223 
L 967.308359 352.675223 
z
" clip-path="url(#p31f22b56d7)" style="fill: #e377c2"/>
   </g>
   <g id="patch_102">
    <path d="M 1049.016718 1453674.055796 
L 1055.144844 1453674.055796 
L 1055.144844 373.533007 
L 1049.016718 373.533007 
z
" clip-path="url(#p31f22b56d7)" style="fill: #e377c2"/>
   </g>
   <g id="patch_103">
    <path d="M 1130.725076 1453674.055796 
L 1136.853203 1453674.055796 
L 1136.853203 501.746004 
L 1130.725076 501.746004 
z
" clip-path="url(#p31f22b56d7)" style="fill: #e377c2"/>
   </g>
   <g id="patch_104">
    <path d="M 1212.433435 1453674.055796 
L 1218.561562 1453674.055796 
L 1218.561562 521.128929 
L 1212.433435 521.128929 
z
" clip-path="url(#p31f22b56d7)" style="fill: #e377c2"/>
   </g>
   <g id="patch_105">
    <path d="M 1294.141794 1453674.055796 
L 1300.269921 1453674.055796 
L 1300.269921 546.698639 
L 1294.141794 546.698639 
z
" clip-path="url(#p31f22b56d7)" style="fill: #e377c2"/>
   </g>
   <g id="patch_106">
    <path d="M 1375.850153 1453674.055796 
L 1381.978279 1453674.055796 
L 1381.978279 567.548007 
L 1375.850153 567.548007 
z
" clip-path="url(#p31f22b56d7)" style="fill: #e377c2"/>
   </g>
   <g id="patch_107">
    <path d="M 1457.558511 1453674.055796 
L 1463.686638 1453674.055796 
L 1463.686638 611.451833 
L 1457.558511 611.451833 
z
" clip-path="url(#p31f22b56d7)" style="fill: #e377c2"/>
   </g>
   <g id="patch_108">
    <path d="M 319.769616 1453674.055796 
L 325.897743 1453674.055796 
L 325.897743 147.01925 
L 319.769616 147.01925 
z
" clip-path="url(#p31f22b56d7)" style="fill: url(#hae1960f483)"/>
   </g>
   <g id="patch_109">
    <path d="M 401.477974 1453674.055796 
L 407.606101 1453674.055796 
L 407.606101 157.947489 
L 401.477974 157.947489 
z
" clip-path="url(#p31f22b56d7)" style="fill: url(#hae1960f483)"/>
   </g>
   <g id="patch_110">
    <path d="M 483.186333 1453674.055796 
L 489.31446 1453674.055796 
L 489.31446 169.069783 
L 483.186333 169.069783 
z
" clip-path="url(#p31f22b56d7)" style="fill: url(#hae1960f483)"/>
   </g>
   <g id="patch_111">
    <path d="M 564.894692 1453674.055796 
L 571.022819 1453674.055796 
L 571.022819 190.867822 
L 564.894692 190.867822 
z
" clip-path="url(#p31f22b56d7)" style="fill: url(#hae1960f483)"/>
   </g>
   <g id="patch_112">
    <path d="M 646.603051 1453674.055796 
L 652.731178 1453674.055796 
L 652.731178 240.300458 
L 646.603051 240.300458 
z
" clip-path="url(#p31f22b56d7)" style="fill: url(#hae1960f483)"/>
   </g>
   <g id="patch_113">
    <path d="M 728.311409 1453674.055796 
L 734.439536 1453674.055796 
L 734.439536 270.746907 
L 728.311409 270.746907 
z
" clip-path="url(#p31f22b56d7)" style="fill: url(#hae1960f483)"/>
   </g>
   <g id="patch_114">
    <path d="M 810.019768 1453674.055796 
L 816.147895 1453674.055796 
L 816.147895 170.090762 
L 810.019768 170.090762 
z
" clip-path="url(#p31f22b56d7)" style="fill: url(#hae1960f483)"/>
   </g>
   <g id="patch_115">
    <path d="M 891.728127 1453674.055796 
L 897.856254 1453674.055796 
L 897.856254 192.983942 
L 891.728127 192.983942 
z
" clip-path="url(#p31f22b56d7)" style="fill: url(#hae1960f483)"/>
   </g>
   <g id="patch_116">
    <path d="M 973.436486 1453674.055796 
L 979.564613 1453674.055796 
L 979.564613 199.375537 
L 973.436486 199.375537 
z
" clip-path="url(#p31f22b56d7)" style="fill: url(#hae1960f483)"/>
   </g>
   <g id="patch_117">
    <path d="M 1055.144844 1453674.055796 
L 1061.272971 1453674.055796 
L 1061.272971 210.175303 
L 1055.144844 210.175303 
z
" clip-path="url(#p31f22b56d7)" style="fill: url(#hae1960f483)"/>
   </g>
   <g id="patch_118">
    <path d="M 1136.853203 1453674.055796 
L 1142.98133 1453674.055796 
L 1142.98133 241.444515 
L 1136.853203 241.444515 
z
" clip-path="url(#p31f22b56d7)" style="fill: url(#hae1960f483)"/>
   </g>
   <g id="patch_119">
    <path d="M 1218.561562 1453674.055796 
L 1224.689689 1453674.055796 
L 1224.689689 242.590665 
L 1218.561562 242.590665 
z
" clip-path="url(#p31f22b56d7)" style="fill: url(#hae1960f483)"/>
   </g>
   <g id="patch_120">
    <path d="M 1300.269921 1453674.055796 
L 1306.398048 1453674.055796 
L 1306.398048 282.862776 
L 1300.269921 282.862776 
z
" clip-path="url(#p31f22b56d7)" style="fill: url(#hae1960f483)"/>
   </g>
   <g id="patch_121">
    <path d="M 1381.978279 1453674.055796 
L 1388.106406 1453674.055796 
L 1388.106406 293.971123 
L 1381.978279 293.971123 
z
" clip-path="url(#p31f22b56d7)" style="fill: url(#hae1960f483)"/>
   </g>
   <g id="patch_122">
    <path d="M 1463.686638 1453674.055796 
L 1469.814765 1453674.055796 
L 1469.814765 300.228627 
L 1463.686638 300.228627 
z
" clip-path="url(#p31f22b56d7)" style="fill: url(#hae1960f483)"/>
   </g>
   <g id="patch_123">
    <path d="M 325.897743 1453674.055796 
L 332.025869 1453674.055796 
L 332.025869 117.209329 
L 325.897743 117.209329 
z
" clip-path="url(#p31f22b56d7)" style="fill: #bcbd22"/>
   </g>
   <g id="patch_124">
    <path d="M 407.606101 1453674.055796 
L 413.734228 1453674.055796 
L 413.734228 139.189511 
L 407.606101 139.189511 
z
" clip-path="url(#p31f22b56d7)" style="fill: #bcbd22"/>
   </g>
   <g id="patch_125">
    <path d="M 489.31446 1453674.055796 
L 495.442587 1453674.055796 
L 495.442587 156.946096 
L 489.31446 156.946096 
z
" clip-path="url(#p31f22b56d7)" style="fill: #bcbd22"/>
   </g>
   <g id="patch_126">
    <path d="M 571.022819 1453674.055796 
L 577.150946 1453674.055796 
L 577.150946 191.924988 
L 571.022819 191.924988 
z
" clip-path="url(#p31f22b56d7)" style="fill: #bcbd22"/>
   </g>
   <g id="patch_127">
    <path d="M 652.731178 1453674.055796 
L 658.859304 1453674.055796 
L 658.859304 190.867822 
L 652.731178 190.867822 
z
" clip-path="url(#p31f22b56d7)" style="fill: #bcbd22"/>
   </g>
   <g id="patch_128">
    <path d="M 734.439536 1453674.055796 
L 740.567663 1453674.055796 
L 740.567663 213.451881 
L 734.439536 213.451881 
z
" clip-path="url(#p31f22b56d7)" style="fill: #bcbd22"/>
   </g>
   <g id="patch_129">
    <path d="M 816.147895 1453674.055796 
L 822.276022 1453674.055796 
L 822.276022 217.847484 
L 816.147895 217.847484 
z
" clip-path="url(#p31f22b56d7)" style="fill: #bcbd22"/>
   </g>
   <g id="patch_130">
    <path d="M 897.856254 1453674.055796 
L 903.984381 1453674.055796 
L 903.984381 254.169015 
L 897.856254 254.169015 
z
" clip-path="url(#p31f22b56d7)" style="fill: #bcbd22"/>
   </g>
   <g id="patch_131">
    <path d="M 979.564613 1453674.055796 
L 985.692739 1453674.055796 
L 985.692739 305.280032 
L 979.564613 305.280032 
z
" clip-path="url(#p31f22b56d7)" style="fill: #bcbd22"/>
   </g>
   <g id="patch_132">
    <path d="M 1061.272971 1453674.055796 
L 1067.401098 1453674.055796 
L 1067.401098 323.287829 
L 1061.272971 323.287829 
z
" clip-path="url(#p31f22b56d7)" style="fill: #bcbd22"/>
   </g>
   <g id="patch_133">
    <path d="M 1142.98133 1453674.055796 
L 1149.109457 1453674.055796 
L 1149.109457 363.712881 
L 1142.98133 363.712881 
z
" clip-path="url(#p31f22b56d7)" style="fill: #bcbd22"/>
   </g>
   <g id="patch_134">
    <path d="M 1224.689689 1453674.055796 
L 1230.817816 1453674.055796 
L 1230.817816 380.642855 
L 1224.689689 380.642855 
z
" clip-path="url(#p31f22b56d7)" style="fill: #bcbd22"/>
   </g>
   <g id="patch_135">
    <path d="M 1306.398048 1453674.055796 
L 1312.526174 1453674.055796 
L 1312.526174 519.341849 
L 1306.398048 519.341849 
z
" clip-path="url(#p31f22b56d7)" style="fill: #bcbd22"/>
   </g>
   <g id="patch_136">
    <path d="M 1388.106406 1453674.055796 
L 1394.234533 1453674.055796 
L 1394.234533 537.446315 
L 1388.106406 537.446315 
z
" clip-path="url(#p31f22b56d7)" style="fill: #bcbd22"/>
   </g>
   <g id="patch_137">
    <path d="M 1469.814765 1453674.055796 
L 1475.942892 1453674.055796 
L 1475.942892 585.138362 
L 1469.814765 585.138362 
z
" clip-path="url(#p31f22b56d7)" style="fill: #bcbd22"/>
   </g>
   <g id="patch_138">
    <path d="M 332.025869 1453674.055796 
L 338.153996 1453674.055796 
L 338.153996 142.114206 
L 332.025869 142.114206 
z
" clip-path="url(#p31f22b56d7)" style="fill: url(#hef6a94a57c)"/>
   </g>
   <g id="patch_139">
    <path d="M 413.734228 1453674.055796 
L 419.862355 1453674.055796 
L 419.862355 144.071616 
L 413.734228 144.071616 
z
" clip-path="url(#p31f22b56d7)" style="fill: url(#hef6a94a57c)"/>
   </g>
   <g id="patch_140">
    <path d="M 495.442587 1453674.055796 
L 501.570714 1453674.055796 
L 501.570714 157.947489 
L 495.442587 157.947489 
z
" clip-path="url(#p31f22b56d7)" style="fill: url(#hef6a94a57c)"/>
   </g>
   <g id="patch_141">
    <path d="M 577.150946 1453674.055796 
L 583.279073 1453674.055796 
L 583.279073 150.97113 
L 577.150946 150.97113 
z
" clip-path="url(#p31f22b56d7)" style="fill: url(#hef6a94a57c)"/>
   </g>
   <g id="patch_142">
    <path d="M 658.859304 1453674.055796 
L 664.987431 1453674.055796 
L 664.987431 148.992073 
L 658.859304 148.992073 
z
" clip-path="url(#p31f22b56d7)" style="fill: url(#hef6a94a57c)"/>
   </g>
   <g id="patch_143">
    <path d="M 740.567663 1453674.055796 
L 746.69579 1453674.055796 
L 746.69579 160.961308 
L 740.567663 160.961308 
z
" clip-path="url(#p31f22b56d7)" style="fill: url(#hef6a94a57c)"/>
   </g>
   <g id="patch_144">
    <path d="M 822.276022 1453674.055796 
L 828.404149 1453674.055796 
L 828.404149 166.016791 
L 822.276022 166.016791 
z
" clip-path="url(#p31f22b56d7)" style="fill: url(#hef6a94a57c)"/>
   </g>
   <g id="patch_145">
    <path d="M 903.984381 1453674.055796 
L 910.112508 1453674.055796 
L 910.112508 216.745688 
L 903.984381 216.745688 
z
" clip-path="url(#p31f22b56d7)" style="fill: url(#hef6a94a57c)"/>
   </g>
   <g id="patch_146">
    <path d="M 985.692739 1453674.055796 
L 991.820866 1453674.055796 
L 991.820866 205.833027 
L 985.692739 205.833027 
z
" clip-path="url(#p31f22b56d7)" style="fill: url(#hef6a94a57c)"/>
   </g>
   <g id="patch_147">
    <path d="M 1067.401098 1453674.055796 
L 1073.529225 1453674.055796 
L 1073.529225 228.97337 
L 1067.401098 228.97337 
z
" clip-path="url(#p31f22b56d7)" style="fill: url(#hef6a94a57c)"/>
   </g>
   <g id="patch_148">
    <path d="M 1149.109457 1453674.055796 
L 1155.237584 1453674.055796 
L 1155.237584 242.590665 
L 1149.109457 242.590665 
z
" clip-path="url(#p31f22b56d7)" style="fill: url(#hef6a94a57c)"/>
   </g>
   <g id="patch_149">
    <path d="M 1230.817816 1453674.055796 
L 1236.945943 1453674.055796 
L 1236.945943 285.314329 
L 1230.817816 285.314329 
z
" clip-path="url(#p31f22b56d7)" style="fill: url(#hef6a94a57c)"/>
   </g>
   <g id="patch_150">
    <path d="M 1312.526174 1453674.055796 
L 1318.654301 1453674.055796 
L 1318.654301 302.749237 
L 1312.526174 302.749237 
z
" clip-path="url(#p31f22b56d7)" style="fill: url(#hef6a94a57c)"/>
   </g>
   <g id="patch_151">
    <path d="M 1394.234533 1453674.055796 
L 1400.36266 1453674.055796 
L 1400.36266 315.506723 
L 1394.234533 315.506723 
z
" clip-path="url(#p31f22b56d7)" style="fill: url(#hef6a94a57c)"/>
   </g>
   <g id="patch_152">
    <path d="M 1475.942892 1453674.055796 
L 1482.071019 1453674.055796 
L 1482.071019 325.90316 
L 1475.942892 325.90316 
z
" clip-path="url(#p31f22b56d7)" style="fill: url(#hef6a94a57c)"/>
   </g>
   <g id="patch_153">
    <path d="M 338.153996 1453674.055796 
L 344.282123 1453674.055796 
L 344.282123 130.496483 
L 338.153996 130.496483 
z
" clip-path="url(#p31f22b56d7)" style="fill: #1f77b4"/>
   </g>
   <g id="patch_154">
    <path d="M 419.862355 1453674.055796 
L 425.990482 1453674.055796 
L 425.990482 136.27841 
L 419.862355 136.27841 
z
" clip-path="url(#p31f22b56d7)" style="fill: #1f77b4"/>
   </g>
   <g id="patch_155">
    <path d="M 501.570714 1453674.055796 
L 507.698841 1453674.055796 
L 507.698841 174.191405 
L 501.570714 174.191405 
z
" clip-path="url(#p31f22b56d7)" style="fill: #1f77b4"/>
   </g>
   <g id="patch_156">
    <path d="M 583.279073 1453674.055796 
L 589.4072 1453674.055796 
L 589.4072 171.113409 
L 583.279073 171.113409 
z
" clip-path="url(#p31f22b56d7)" style="fill: #1f77b4"/>
   </g>
   <g id="patch_157">
    <path d="M 664.987431 1453674.055796 
L 671.115558 1453674.055796 
L 671.115558 195.107235 
L 664.987431 195.107235 
z
" clip-path="url(#p31f22b56d7)" style="fill: #1f77b4"/>
   </g>
   <g id="patch_158">
    <path d="M 746.69579 1453674.055796 
L 752.823917 1453674.055796 
L 752.823917 206.915777 
L 746.69579 206.915777 
z
" clip-path="url(#p31f22b56d7)" style="fill: #1f77b4"/>
   </g>
   <g id="patch_159">
    <path d="M 828.404149 1453674.055796 
L 834.532276 1453674.055796 
L 834.532276 227.851846 
L 828.404149 227.851846 
z
" clip-path="url(#p31f22b56d7)" style="fill: #1f77b4"/>
   </g>
   <g id="patch_160">
    <path d="M 910.112508 1453674.055796 
L 916.240635 1453674.055796 
L 916.240635 249.511961 
L 910.112508 249.511961 
z
" clip-path="url(#p31f22b56d7)" style="fill: #1f77b4"/>
   </g>
   <g id="patch_161">
    <path d="M 991.820866 1453674.055796 
L 997.948993 1453674.055796 
L 997.948993 295.217633 
L 991.820866 295.217633 
z
" clip-path="url(#p31f22b56d7)" style="fill: #1f77b4"/>
   </g>
   <g id="patch_162">
    <path d="M 1073.529225 1453674.055796 
L 1079.657352 1453674.055796 
L 1079.657352 363.712881 
L 1073.529225 363.712881 
z
" clip-path="url(#p31f22b56d7)" style="fill: #1f77b4"/>
   </g>
   <g id="patch_163">
    <path d="M 1155.237584 1453674.055796 
L 1161.365711 1453674.055796 
L 1161.365711 466.329332 
L 1155.237584 466.329332 
z
" clip-path="url(#p31f22b56d7)" style="fill: #1f77b4"/>
   </g>
   <g id="patch_164">
    <path d="M 1236.945943 1453674.055796 
L 1243.07407 1453674.055796 
L 1243.07407 395.109339 
L 1236.945943 395.109339 
z
" clip-path="url(#p31f22b56d7)" style="fill: #1f77b4"/>
   </g>
   <g id="patch_165">
    <path d="M 1318.654301 1453674.055796 
L 1324.782428 1453674.055796 
L 1324.782428 454.955229 
L 1318.654301 454.955229 
z
" clip-path="url(#p31f22b56d7)" style="fill: #1f77b4"/>
   </g>
   <g id="patch_166">
    <path d="M 1400.36266 1453674.055796 
L 1406.490787 1453674.055796 
L 1406.490787 467.971197 
L 1400.36266 467.971197 
z
" clip-path="url(#p31f22b56d7)" style="fill: #1f77b4"/>
   </g>
   <g id="patch_167">
    <path d="M 1482.071019 1453674.055796 
L 1488.199146 1453674.055796 
L 1488.199146 500.013303 
L 1482.071019 500.013303 
z
" clip-path="url(#p31f22b56d7)" style="fill: #1f77b4"/>
   </g>
   <g id="patch_168">
    <path d="M 344.282123 1453674.055796 
L 350.41025 1453674.055796 
L 350.41025 153.951489 
L 344.282123 153.951489 
z
" clip-path="url(#p31f22b56d7)" style="fill: url(#ha283a1aeda)"/>
   </g>
   <g id="patch_169">
    <path d="M 425.990482 1453674.055796 
L 432.118609 1453674.055796 
L 432.118609 150.97113 
L 425.990482 150.97113 
z
" clip-path="url(#p31f22b56d7)" style="fill: url(#ha283a1aeda)"/>
   </g>
   <g id="patch_170">
    <path d="M 507.698841 1453674.055796 
L 513.826968 1453674.055796 
L 513.826968 151.963008 
L 507.698841 151.963008 
z
" clip-path="url(#p31f22b56d7)" style="fill: url(#ha283a1aeda)"/>
   </g>
   <g id="patch_171">
    <path d="M 589.4072 1453674.055796 
L 595.535326 1453674.055796 
L 595.535326 152.956459 
L 589.4072 152.956459 
z
" clip-path="url(#p31f22b56d7)" style="fill: url(#ha283a1aeda)"/>
   </g>
   <g id="patch_172">
    <path d="M 671.115558 1453674.055796 
L 677.243685 1453674.055796 
L 677.243685 158.950485 
L 671.115558 158.950485 
z
" clip-path="url(#p31f22b56d7)" style="fill: url(#ha283a1aeda)"/>
   </g>
   <g id="patch_173">
    <path d="M 752.823917 1453674.055796 
L 758.952044 1453674.055796 
L 758.952044 159.95509 
L 752.823917 159.95509 
z
" clip-path="url(#p31f22b56d7)" style="fill: url(#ha283a1aeda)"/>
   </g>
   <g id="patch_174">
    <path d="M 834.532276 1453674.055796 
L 840.660403 1453674.055796 
L 840.660403 169.069783 
L 834.532276 169.069783 
z
" clip-path="url(#p31f22b56d7)" style="fill: url(#ha283a1aeda)"/>
   </g>
   <g id="patch_175">
    <path d="M 916.240635 1453674.055796 
L 922.368761 1453674.055796 
L 922.368761 216.745688 
L 916.240635 216.745688 
z
" clip-path="url(#p31f22b56d7)" style="fill: url(#ha283a1aeda)"/>
   </g>
   <g id="patch_176">
    <path d="M 997.948993 1453674.055796 
L 1004.07712 1453674.055796 
L 1004.07712 213.451881 
L 997.948993 213.451881 
z
" clip-path="url(#p31f22b56d7)" style="fill: url(#ha283a1aeda)"/>
   </g>
   <g id="patch_177">
    <path d="M 1079.657352 1453674.055796 
L 1085.785479 1453674.055796 
L 1085.785479 232.350041 
L 1079.657352 232.350041 
z
" clip-path="url(#p31f22b56d7)" style="fill: url(#ha283a1aeda)"/>
   </g>
   <g id="patch_178">
    <path d="M 1161.365711 1453674.055796 
L 1167.493838 1453674.055796 
L 1167.493838 251.83616 
L 1161.365711 251.83616 
z
" clip-path="url(#p31f22b56d7)" style="fill: url(#ha283a1aeda)"/>
   </g>
   <g id="patch_179">
    <path d="M 1243.07407 1453674.055796 
L 1249.202196 1453674.055796 
L 1249.202196 274.357124 
L 1243.07407 274.357124 
z
" clip-path="url(#p31f22b56d7)" style="fill: url(#ha283a1aeda)"/>
   </g>
   <g id="patch_180">
    <path d="M 1324.782428 1453674.055796 
L 1330.910555 1453674.055796 
L 1330.910555 279.203345 
L 1324.782428 279.203345 
z
" clip-path="url(#p31f22b56d7)" style="fill: url(#ha283a1aeda)"/>
   </g>
   <g id="patch_181">
    <path d="M 1406.490787 1453674.055796 
L 1412.618914 1453674.055796 
L 1412.618914 297.718119 
L 1406.490787 297.718119 
z
" clip-path="url(#p31f22b56d7)" style="fill: url(#ha283a1aeda)"/>
   </g>
   <g id="patch_182">
    <path d="M 1488.199146 1453674.055796 
L 1494.327273 1453674.055796 
L 1494.327273 312.934355 
L 1488.199146 312.934355 
z
" clip-path="url(#p31f22b56d7)" style="fill: url(#ha283a1aeda)"/>
   </g>
   <g id="matplotlib.axis_1">
    <g id="xtick_1">
     <g id="line2d_1">
      <defs>
       <path id="maa944f553a" d="M 0 0 
L 0 3.5 
" style="stroke: #000000; stroke-width: 0.8"/>
      </defs>
      <g>
       <use xlink:href="#maa944f553a" x="313.641489" y="640.8" style="stroke: #000000; stroke-width: 0.8"/>
      </g>
     </g>
     <g id="text_1">
      <!-- 2 -->
      <g transform="translate(310.460239 655.398438) scale(0.1 -0.1)">
       <defs>
        <path id="DejaVuSans-32" d="M 1228 531 
L 3431 531 
L 3431 0 
L 469 0 
L 469 531 
Q 828 903 1448 1529 
Q 2069 2156 2228 2338 
Q 2531 2678 2651 2914 
Q 2772 3150 2772 3378 
Q 2772 3750 2511 3984 
Q 2250 4219 1831 4219 
Q 1534 4219 1204 4116 
Q 875 4013 500 3803 
L 500 4441 
Q 881 4594 1212 4672 
Q 1544 4750 1819 4750 
Q 2544 4750 2975 4387 
Q 3406 4025 3406 3419 
Q 3406 3131 3298 2873 
Q 3191 2616 2906 2266 
Q 2828 2175 2409 1742 
Q 1991 1309 1228 531 
z
" transform="scale(0.015625)"/>
       </defs>
       <use xlink:href="#DejaVuSans-32"/>
      </g>
     </g>
    </g>
    <g id="xtick_2">
     <g id="line2d_2">
      <g>
       <use xlink:href="#maa944f553a" x="395.349847" y="640.8" style="stroke: #000000; stroke-width: 0.8"/>
      </g>
     </g>
     <g id="text_2">
      <!-- 3 -->
      <g transform="translate(392.168597 655.398438) scale(0.1 -0.1)">
       <defs>
        <path id="DejaVuSans-33" d="M 2597 2516 
Q 3050 2419 3304 2112 
Q 3559 1806 3559 1356 
Q 3559 666 3084 287 
Q 2609 -91 1734 -91 
Q 1441 -91 1130 -33 
Q 819 25 488 141 
L 488 750 
Q 750 597 1062 519 
Q 1375 441 1716 441 
Q 2309 441 2620 675 
Q 2931 909 2931 1356 
Q 2931 1769 2642 2001 
Q 2353 2234 1838 2234 
L 1294 2234 
L 1294 2753 
L 1863 2753 
Q 2328 2753 2575 2939 
Q 2822 3125 2822 3475 
Q 2822 3834 2567 4026 
Q 2313 4219 1838 4219 
Q 1578 4219 1281 4162 
Q 984 4106 628 3988 
L 628 4550 
Q 988 4650 1302 4700 
Q 1616 4750 1894 4750 
Q 2613 4750 3031 4423 
Q 3450 4097 3450 3541 
Q 3450 3153 3228 2886 
Q 3006 2619 2597 2516 
z
" transform="scale(0.015625)"/>
       </defs>
       <use xlink:href="#DejaVuSans-33"/>
      </g>
     </g>
    </g>
    <g id="xtick_3">
     <g id="line2d_3">
      <g>
       <use xlink:href="#maa944f553a" x="477.058206" y="640.8" style="stroke: #000000; stroke-width: 0.8"/>
      </g>
     </g>
     <g id="text_3">
      <!-- 4 -->
      <g transform="translate(473.876956 655.398438) scale(0.1 -0.1)">
       <defs>
        <path id="DejaVuSans-34" d="M 2419 4116 
L 825 1625 
L 2419 1625 
L 2419 4116 
z
M 2253 4666 
L 3047 4666 
L 3047 1625 
L 3713 1625 
L 3713 1100 
L 3047 1100 
L 3047 0 
L 2419 0 
L 2419 1100 
L 313 1100 
L 313 1709 
L 2253 4666 
z
" transform="scale(0.015625)"/>
       </defs>
       <use xlink:href="#DejaVuSans-34"/>
      </g>
     </g>
    </g>
    <g id="xtick_4">
     <g id="line2d_4">
      <g>
       <use xlink:href="#maa944f553a" x="558.766565" y="640.8" style="stroke: #000000; stroke-width: 0.8"/>
      </g>
     </g>
     <g id="text_4">
      <!-- 5 -->
      <g transform="translate(555.585315 655.398438) scale(0.1 -0.1)">
       <defs>
        <path id="DejaVuSans-35" d="M 691 4666 
L 3169 4666 
L 3169 4134 
L 1269 4134 
L 1269 2991 
Q 1406 3038 1543 3061 
Q 1681 3084 1819 3084 
Q 2600 3084 3056 2656 
Q 3513 2228 3513 1497 
Q 3513 744 3044 326 
Q 2575 -91 1722 -91 
Q 1428 -91 1123 -41 
Q 819 9 494 109 
L 494 744 
Q 775 591 1075 516 
Q 1375 441 1709 441 
Q 2250 441 2565 725 
Q 2881 1009 2881 1497 
Q 2881 1984 2565 2268 
Q 2250 2553 1709 2553 
Q 1456 2553 1204 2497 
Q 953 2441 691 2322 
L 691 4666 
z
" transform="scale(0.015625)"/>
       </defs>
       <use xlink:href="#DejaVuSans-35"/>
      </g>
     </g>
    </g>
    <g id="xtick_5">
     <g id="line2d_5">
      <g>
       <use xlink:href="#maa944f553a" x="640.474924" y="640.8" style="stroke: #000000; stroke-width: 0.8"/>
      </g>
     </g>
     <g id="text_5">
      <!-- 6 -->
      <g transform="translate(637.293674 655.398438) scale(0.1 -0.1)">
       <defs>
        <path id="DejaVuSans-36" d="M 2113 2584 
Q 1688 2584 1439 2293 
Q 1191 2003 1191 1497 
Q 1191 994 1439 701 
Q 1688 409 2113 409 
Q 2538 409 2786 701 
Q 3034 994 3034 1497 
Q 3034 2003 2786 2293 
Q 2538 2584 2113 2584 
z
M 3366 4563 
L 3366 3988 
Q 3128 4100 2886 4159 
Q 2644 4219 2406 4219 
Q 1781 4219 1451 3797 
Q 1122 3375 1075 2522 
Q 1259 2794 1537 2939 
Q 1816 3084 2150 3084 
Q 2853 3084 3261 2657 
Q 3669 2231 3669 1497 
Q 3669 778 3244 343 
Q 2819 -91 2113 -91 
Q 1303 -91 875 529 
Q 447 1150 447 2328 
Q 447 3434 972 4092 
Q 1497 4750 2381 4750 
Q 2619 4750 2861 4703 
Q 3103 4656 3366 4563 
z
" transform="scale(0.015625)"/>
       </defs>
       <use xlink:href="#DejaVuSans-36"/>
      </g>
     </g>
    </g>
    <g id="xtick_6">
     <g id="line2d_6">
      <g>
       <use xlink:href="#maa944f553a" x="722.183282" y="640.8" style="stroke: #000000; stroke-width: 0.8"/>
      </g>
     </g>
     <g id="text_6">
      <!-- 7 -->
      <g transform="translate(719.002032 655.398438) scale(0.1 -0.1)">
       <defs>
        <path id="DejaVuSans-37" d="M 525 4666 
L 3525 4666 
L 3525 4397 
L 1831 0 
L 1172 0 
L 2766 4134 
L 525 4134 
L 525 4666 
z
" transform="scale(0.015625)"/>
       </defs>
       <use xlink:href="#DejaVuSans-37"/>
      </g>
     </g>
    </g>
    <g id="xtick_7">
     <g id="line2d_7">
      <g>
       <use xlink:href="#maa944f553a" x="803.891641" y="640.8" style="stroke: #000000; stroke-width: 0.8"/>
      </g>
     </g>
     <g id="text_7">
      <!-- 8 -->
      <g transform="translate(800.710391 655.398438) scale(0.1 -0.1)">
       <defs>
        <path id="DejaVuSans-38" d="M 2034 2216 
Q 1584 2216 1326 1975 
Q 1069 1734 1069 1313 
Q 1069 891 1326 650 
Q 1584 409 2034 409 
Q 2484 409 2743 651 
Q 3003 894 3003 1313 
Q 3003 1734 2745 1975 
Q 2488 2216 2034 2216 
z
M 1403 2484 
Q 997 2584 770 2862 
Q 544 3141 544 3541 
Q 544 4100 942 4425 
Q 1341 4750 2034 4750 
Q 2731 4750 3128 4425 
Q 3525 4100 3525 3541 
Q 3525 3141 3298 2862 
Q 3072 2584 2669 2484 
Q 3125 2378 3379 2068 
Q 3634 1759 3634 1313 
Q 3634 634 3220 271 
Q 2806 -91 2034 -91 
Q 1263 -91 848 271 
Q 434 634 434 1313 
Q 434 1759 690 2068 
Q 947 2378 1403 2484 
z
M 1172 3481 
Q 1172 3119 1398 2916 
Q 1625 2713 2034 2713 
Q 2441 2713 2670 2916 
Q 2900 3119 2900 3481 
Q 2900 3844 2670 4047 
Q 2441 4250 2034 4250 
Q 1625 4250 1398 4047 
Q 1172 3844 1172 3481 
z
" transform="scale(0.015625)"/>
       </defs>
       <use xlink:href="#DejaVuSans-38"/>
      </g>
     </g>
    </g>
    <g id="xtick_8">
     <g id="line2d_8">
      <g>
       <use xlink:href="#maa944f553a" x="885.6" y="640.8" style="stroke: #000000; stroke-width: 0.8"/>
      </g>
     </g>
     <g id="text_8">
      <!-- 9 -->
      <g transform="translate(882.41875 655.398438) scale(0.1 -0.1)">
       <defs>
        <path id="DejaVuSans-39" d="M 703 97 
L 703 672 
Q 941 559 1184 500 
Q 1428 441 1663 441 
Q 2288 441 2617 861 
Q 2947 1281 2994 2138 
Q 2813 1869 2534 1725 
Q 2256 1581 1919 1581 
Q 1219 1581 811 2004 
Q 403 2428 403 3163 
Q 403 3881 828 4315 
Q 1253 4750 1959 4750 
Q 2769 4750 3195 4129 
Q 3622 3509 3622 2328 
Q 3622 1225 3098 567 
Q 2575 -91 1691 -91 
Q 1453 -91 1209 -44 
Q 966 3 703 97 
z
M 1959 2075 
Q 2384 2075 2632 2365 
Q 2881 2656 2881 3163 
Q 2881 3666 2632 3958 
Q 2384 4250 1959 4250 
Q 1534 4250 1286 3958 
Q 1038 3666 1038 3163 
Q 1038 2656 1286 2365 
Q 1534 2075 1959 2075 
z
" transform="scale(0.015625)"/>
       </defs>
       <use xlink:href="#DejaVuSans-39"/>
      </g>
     </g>
    </g>
    <g id="xtick_9">
     <g id="line2d_9">
      <g>
       <use xlink:href="#maa944f553a" x="967.308359" y="640.8" style="stroke: #000000; stroke-width: 0.8"/>
      </g>
     </g>
     <g id="text_9">
      <!-- 10 -->
      <g transform="translate(960.945859 655.398438) scale(0.1 -0.1)">
       <defs>
        <path id="DejaVuSans-31" d="M 794 531 
L 1825 531 
L 1825 4091 
L 703 3866 
L 703 4441 
L 1819 4666 
L 2450 4666 
L 2450 531 
L 3481 531 
L 3481 0 
L 794 0 
L 794 531 
z
" transform="scale(0.015625)"/>
        <path id="DejaVuSans-30" d="M 2034 4250 
Q 1547 4250 1301 3770 
Q 1056 3291 1056 2328 
Q 1056 1369 1301 889 
Q 1547 409 2034 409 
Q 2525 409 2770 889 
Q 3016 1369 3016 2328 
Q 3016 3291 2770 3770 
Q 2525 4250 2034 4250 
z
M 2034 4750 
Q 2819 4750 3233 4129 
Q 3647 3509 3647 2328 
Q 3647 1150 3233 529 
Q 2819 -91 2034 -91 
Q 1250 -91 836 529 
Q 422 1150 422 2328 
Q 422 3509 836 4129 
Q 1250 4750 2034 4750 
z
" transform="scale(0.015625)"/>
       </defs>
       <use xlink:href="#DejaVuSans-31"/>
       <use xlink:href="#DejaVuSans-30" x="63.623047"/>
      </g>
     </g>
    </g>
    <g id="xtick_10">
     <g id="line2d_10">
      <g>
       <use xlink:href="#maa944f553a" x="1049.016718" y="640.8" style="stroke: #000000; stroke-width: 0.8"/>
      </g>
     </g>
     <g id="text_10">
      <!-- 11 -->
      <g transform="translate(1042.654218 655.398438) scale(0.1 -0.1)">
       <use xlink:href="#DejaVuSans-31"/>
       <use xlink:href="#DejaVuSans-31" x="63.623047"/>
      </g>
     </g>
    </g>
    <g id="xtick_11">
     <g id="line2d_11">
      <g>
       <use xlink:href="#maa944f553a" x="1130.725076" y="640.8" style="stroke: #000000; stroke-width: 0.8"/>
      </g>
     </g>
     <g id="text_11">
      <!-- 12 -->
      <g transform="translate(1124.362576 655.398438) scale(0.1 -0.1)">
       <use xlink:href="#DejaVuSans-31"/>
       <use xlink:href="#DejaVuSans-32" x="63.623047"/>
      </g>
     </g>
    </g>
    <g id="xtick_12">
     <g id="line2d_12">
      <g>
       <use xlink:href="#maa944f553a" x="1212.433435" y="640.8" style="stroke: #000000; stroke-width: 0.8"/>
      </g>
     </g>
     <g id="text_12">
      <!-- 13 -->
      <g transform="translate(1206.070935 655.398438) scale(0.1 -0.1)">
       <use xlink:href="#DejaVuSans-31"/>
       <use xlink:href="#DejaVuSans-33" x="63.623047"/>
      </g>
     </g>
    </g>
    <g id="xtick_13">
     <g id="line2d_13">
      <g>
       <use xlink:href="#maa944f553a" x="1294.141794" y="640.8" style="stroke: #000000; stroke-width: 0.8"/>
      </g>
     </g>
     <g id="text_13">
      <!-- 14 -->
      <g transform="translate(1287.779294 655.398438) scale(0.1 -0.1)">
       <use xlink:href="#DejaVuSans-31"/>
       <use xlink:href="#DejaVuSans-34" x="63.623047"/>
      </g>
     </g>
    </g>
    <g id="xtick_14">
     <g id="line2d_14">
      <g>
       <use xlink:href="#maa944f553a" x="1375.850153" y="640.8" style="stroke: #000000; stroke-width: 0.8"/>
      </g>
     </g>
     <g id="text_14">
      <!-- 15 -->
      <g transform="translate(1369.487653 655.398438) scale(0.1 -0.1)">
       <use xlink:href="#DejaVuSans-31"/>
       <use xlink:href="#DejaVuSans-35" x="63.623047"/>
      </g>
     </g>
    </g>
    <g id="xtick_15">
     <g id="line2d_15">
      <g>
       <use xlink:href="#maa944f553a" x="1457.558511" y="640.8" style="stroke: #000000; stroke-width: 0.8"/>
      </g>
     </g>
     <g id="text_15">
      <!-- 16 -->
      <g transform="translate(1451.196011 655.398438) scale(0.1 -0.1)">
       <use xlink:href="#DejaVuSans-31"/>
       <use xlink:href="#DejaVuSans-36" x="63.623047"/>
      </g>
     </g>
    </g>
    <g id="text_16">
     <!-- nspread -->
     <g transform="translate(865.394531 669.076563) scale(0.1 -0.1)">
      <defs>
       <path id="DejaVuSans-6e" d="M 3513 2113 
L 3513 0 
L 2938 0 
L 2938 2094 
Q 2938 2591 2744 2837 
Q 2550 3084 2163 3084 
Q 1697 3084 1428 2787 
Q 1159 2491 1159 1978 
L 1159 0 
L 581 0 
L 581 3500 
L 1159 3500 
L 1159 2956 
Q 1366 3272 1645 3428 
Q 1925 3584 2291 3584 
Q 2894 3584 3203 3211 
Q 3513 2838 3513 2113 
z
" transform="scale(0.015625)"/>
       <path id="DejaVuSans-73" d="M 2834 3397 
L 2834 2853 
Q 2591 2978 2328 3040 
Q 2066 3103 1784 3103 
Q 1356 3103 1142 2972 
Q 928 2841 928 2578 
Q 928 2378 1081 2264 
Q 1234 2150 1697 2047 
L 1894 2003 
Q 2506 1872 2764 1633 
Q 3022 1394 3022 966 
Q 3022 478 2636 193 
Q 2250 -91 1575 -91 
Q 1294 -91 989 -36 
Q 684 19 347 128 
L 347 722 
Q 666 556 975 473 
Q 1284 391 1588 391 
Q 1994 391 2212 530 
Q 2431 669 2431 922 
Q 2431 1156 2273 1281 
Q 2116 1406 1581 1522 
L 1381 1569 
Q 847 1681 609 1914 
Q 372 2147 372 2553 
Q 372 3047 722 3315 
Q 1072 3584 1716 3584 
Q 2034 3584 2315 3537 
Q 2597 3491 2834 3397 
z
" transform="scale(0.015625)"/>
       <path id="DejaVuSans-70" d="M 1159 525 
L 1159 -1331 
L 581 -1331 
L 581 3500 
L 1159 3500 
L 1159 2969 
Q 1341 3281 1617 3432 
Q 1894 3584 2278 3584 
Q 2916 3584 3314 3078 
Q 3713 2572 3713 1747 
Q 3713 922 3314 415 
Q 2916 -91 2278 -91 
Q 1894 -91 1617 61 
Q 1341 213 1159 525 
z
M 3116 1747 
Q 3116 2381 2855 2742 
Q 2594 3103 2138 3103 
Q 1681 3103 1420 2742 
Q 1159 2381 1159 1747 
Q 1159 1113 1420 752 
Q 1681 391 2138 391 
Q 2594 391 2855 752 
Q 3116 1113 3116 1747 
z
" transform="scale(0.015625)"/>
       <path id="DejaVuSans-72" d="M 2631 2963 
Q 2534 3019 2420 3045 
Q 2306 3072 2169 3072 
Q 1681 3072 1420 2755 
Q 1159 2438 1159 1844 
L 1159 0 
L 581 0 
L 581 3500 
L 1159 3500 
L 1159 2956 
Q 1341 3275 1631 3429 
Q 1922 3584 2338 3584 
Q 2397 3584 2469 3576 
Q 2541 3569 2628 3553 
L 2631 2963 
z
" transform="scale(0.015625)"/>
       <path id="DejaVuSans-65" d="M 3597 1894 
L 3597 1613 
L 953 1613 
Q 991 1019 1311 708 
Q 1631 397 2203 397 
Q 2534 397 2845 478 
Q 3156 559 3463 722 
L 3463 178 
Q 3153 47 2828 -22 
Q 2503 -91 2169 -91 
Q 1331 -91 842 396 
Q 353 884 353 1716 
Q 353 2575 817 3079 
Q 1281 3584 2069 3584 
Q 2775 3584 3186 3129 
Q 3597 2675 3597 1894 
z
M 3022 2063 
Q 3016 2534 2758 2815 
Q 2500 3097 2075 3097 
Q 1594 3097 1305 2825 
Q 1016 2553 972 2059 
L 3022 2063 
z
" transform="scale(0.015625)"/>
       <path id="DejaVuSans-61" d="M 2194 1759 
Q 1497 1759 1228 1600 
Q 959 1441 959 1056 
Q 959 750 1161 570 
Q 1363 391 1709 391 
Q 2188 391 2477 730 
Q 2766 1069 2766 1631 
L 2766 1759 
L 2194 1759 
z
M 3341 1997 
L 3341 0 
L 2766 0 
L 2766 531 
Q 2569 213 2275 61 
Q 1981 -91 1556 -91 
Q 1019 -91 701 211 
Q 384 513 384 1019 
Q 384 1609 779 1909 
Q 1175 2209 1959 2209 
L 2766 2209 
L 2766 2266 
Q 2766 2663 2505 2880 
Q 2244 3097 1772 3097 
Q 1472 3097 1187 3025 
Q 903 2953 641 2809 
L 641 3341 
Q 956 3463 1253 3523 
Q 1550 3584 1831 3584 
Q 2591 3584 2966 3190 
Q 3341 2797 3341 1997 
z
" transform="scale(0.015625)"/>
       <path id="DejaVuSans-64" d="M 2906 2969 
L 2906 4863 
L 3481 4863 
L 3481 0 
L 2906 0 
L 2906 525 
Q 2725 213 2448 61 
Q 2172 -91 1784 -91 
Q 1150 -91 751 415 
Q 353 922 353 1747 
Q 353 2572 751 3078 
Q 1150 3584 1784 3584 
Q 2172 3584 2448 3432 
Q 2725 3281 2906 2969 
z
M 947 1747 
Q 947 1113 1208 752 
Q 1469 391 1925 391 
Q 2381 391 2643 752 
Q 2906 1113 2906 1747 
Q 2906 2381 2643 2742 
Q 2381 3103 1925 3103 
Q 1469 3103 1208 2742 
Q 947 2381 947 1747 
z
" transform="scale(0.015625)"/>
      </defs>
      <use xlink:href="#DejaVuSans-6e"/>
      <use xlink:href="#DejaVuSans-73" x="63.378906"/>
      <use xlink:href="#DejaVuSans-70" x="115.478516"/>
      <use xlink:href="#DejaVuSans-72" x="178.955078"/>
      <use xlink:href="#DejaVuSans-65" x="217.818359"/>
      <use xlink:href="#DejaVuSans-61" x="279.341797"/>
      <use xlink:href="#DejaVuSans-64" x="340.621094"/>
     </g>
    </g>
   </g>
   <g id="matplotlib.axis_2">
    <g id="ytick_1">
     <g id="line2d_16">
      <defs>
       <path id="mf1c7245bb4" d="M 0 0 
L -2 0 
" style="stroke: #000000; stroke-width: 0.6"/>
      </defs>
      <g>
       <use xlink:href="#mf1c7245bb4" x="216" y="617.684431" style="stroke: #000000; stroke-width: 0.6"/>
      </g>
     </g>
     <g id="text_17">
      <!-- $\mathdefault{3\times10^{7}}$ -->
      <g transform="translate(174.4 621.48365) scale(0.1 -0.1)">
       <defs>
        <path id="DejaVuSans-d7" d="M 4488 3438 
L 3059 2003 
L 4488 575 
L 4116 197 
L 2681 1631 
L 1247 197 
L 878 575 
L 2303 2003 
L 878 3438 
L 1247 3816 
L 2681 2381 
L 4116 3816 
L 4488 3438 
z
" transform="scale(0.015625)"/>
       </defs>
       <use xlink:href="#DejaVuSans-33" transform="translate(0 0.684375)"/>
       <use xlink:href="#DejaVuSans-d7" transform="translate(83.105469 0.684375)"/>
       <use xlink:href="#DejaVuSans-31" transform="translate(186.376953 0.684375)"/>
       <use xlink:href="#DejaVuSans-30" transform="translate(250 0.684375)"/>
       <use xlink:href="#DejaVuSans-37" transform="translate(314.580078 38.965625) scale(0.7)"/>
      </g>
     </g>
    </g>
    <g id="ytick_2">
     <g id="line2d_17">
      <g>
       <use xlink:href="#mf1c7245bb4" x="216" y="437.488749" style="stroke: #000000; stroke-width: 0.6"/>
      </g>
     </g>
     <g id="text_18">
      <!-- $\mathdefault{4\times10^{7}}$ -->
      <g transform="translate(174.4 441.287967) scale(0.1 -0.1)">
       <use xlink:href="#DejaVuSans-34" transform="translate(0 0.684375)"/>
       <use xlink:href="#DejaVuSans-d7" transform="translate(83.105469 0.684375)"/>
       <use xlink:href="#DejaVuSans-31" transform="translate(186.376953 0.684375)"/>
       <use xlink:href="#DejaVuSans-30" transform="translate(250 0.684375)"/>
       <use xlink:href="#DejaVuSans-37" transform="translate(314.580078 38.965625) scale(0.7)"/>
      </g>
     </g>
    </g>
    <g id="ytick_3">
     <g id="line2d_18">
      <g>
       <use xlink:href="#mf1c7245bb4" x="216" y="297.718119" style="stroke: #000000; stroke-width: 0.6"/>
      </g>
     </g>
     <g id="text_19">
      <!-- $\mathdefault{5\times10^{7}}$ -->
      <g transform="translate(174.4 301.517337) scale(0.1 -0.1)">
       <use xlink:href="#DejaVuSans-35" transform="translate(0 0.684375)"/>
       <use xlink:href="#DejaVuSans-d7" transform="translate(83.105469 0.684375)"/>
       <use xlink:href="#DejaVuSans-31" transform="translate(186.376953 0.684375)"/>
       <use xlink:href="#DejaVuSans-30" transform="translate(250 0.684375)"/>
       <use xlink:href="#DejaVuSans-37" transform="translate(314.580078 38.965625) scale(0.7)"/>
      </g>
     </g>
    </g>
    <g id="ytick_4">
     <g id="line2d_19">
      <g>
       <use xlink:href="#mf1c7245bb4" x="216" y="183.517199" style="stroke: #000000; stroke-width: 0.6"/>
      </g>
     </g>
     <g id="text_20">
      <!-- $\mathdefault{6\times10^{7}}$ -->
      <g transform="translate(174.4 187.316418) scale(0.1 -0.1)">
       <use xlink:href="#DejaVuSans-36" transform="translate(0 0.684375)"/>
       <use xlink:href="#DejaVuSans-d7" transform="translate(83.105469 0.684375)"/>
       <use xlink:href="#DejaVuSans-31" transform="translate(186.376953 0.684375)"/>
       <use xlink:href="#DejaVuSans-30" transform="translate(250 0.684375)"/>
       <use xlink:href="#DejaVuSans-37" transform="translate(314.580078 38.965625) scale(0.7)"/>
      </g>
     </g>
    </g>
    <g id="ytick_5">
     <g id="line2d_20">
      <g>
       <use xlink:href="#mf1c7245bb4" x="216" y="86.961697" style="stroke: #000000; stroke-width: 0.6"/>
      </g>
     </g>
     <g id="text_21">
      <!-- $\mathdefault{7\times10^{7}}$ -->
      <g transform="translate(174.4 90.760916) scale(0.1 -0.1)">
       <use xlink:href="#DejaVuSans-37" transform="translate(0 0.684375)"/>
       <use xlink:href="#DejaVuSans-d7" transform="translate(83.105469 0.684375)"/>
       <use xlink:href="#DejaVuSans-31" transform="translate(186.376953 0.684375)"/>
       <use xlink:href="#DejaVuSans-30" transform="translate(250 0.684375)"/>
       <use xlink:href="#DejaVuSans-37" transform="translate(314.580078 38.965625) scale(0.7)"/>
      </g>
     </g>
    </g>
    <g id="text_22">
     <!-- pts/s -->
     <g transform="translate(168.320312 375.628125) rotate(-90) scale(0.1 -0.1)">
      <defs>
       <path id="DejaVuSans-74" d="M 1172 4494 
L 1172 3500 
L 2356 3500 
L 2356 3053 
L 1172 3053 
L 1172 1153 
Q 1172 725 1289 603 
Q 1406 481 1766 481 
L 2356 481 
L 2356 0 
L 1766 0 
Q 1100 0 847 248 
Q 594 497 594 1153 
L 594 3053 
L 172 3053 
L 172 3500 
L 594 3500 
L 594 4494 
L 1172 4494 
z
" transform="scale(0.015625)"/>
       <path id="DejaVuSans-2f" d="M 1625 4666 
L 2156 4666 
L 531 -594 
L 0 -594 
L 1625 4666 
z
" transform="scale(0.015625)"/>
      </defs>
      <use xlink:href="#DejaVuSans-70"/>
      <use xlink:href="#DejaVuSans-74" x="63.476562"/>
      <use xlink:href="#DejaVuSans-73" x="102.685547"/>
      <use xlink:href="#DejaVuSans-2f" x="154.785156"/>
      <use xlink:href="#DejaVuSans-73" x="188.476562"/>
     </g>
    </g>
   </g>
   <g id="line2d_21">
    <path d="M 216 640.8 
L 1555.2 640.8 
" clip-path="url(#p31f22b56d7)" style="fill: none; stroke-dasharray: 5.55,2.4; stroke-dashoffset: 0; stroke: #c0c0c0; stroke-opacity: 0.6; stroke-width: 1.5"/>
   </g>
   <g id="line2d_22">
    <path d="M 216 548.841394 
L 1555.2 548.841394 
" clip-path="url(#p31f22b56d7)" style="fill: none; stroke-dasharray: 5.55,2.4; stroke-dashoffset: 0; stroke: #c0c0c0; stroke-opacity: 0.6; stroke-width: 1.5"/>
   </g>
   <g id="line2d_23">
    <path d="M 216 468.671162 
L 1555.2 468.671162 
" clip-path="url(#p31f22b56d7)" style="fill: none; stroke-dasharray: 5.55,2.4; stroke-dashoffset: 0; stroke: #c0c0c0; stroke-opacity: 0.6; stroke-width: 1.5"/>
   </g>
   <g id="line2d_24">
    <path d="M 216 397.607496 
L 1555.2 397.607496 
" clip-path="url(#p31f22b56d7)" style="fill: none; stroke-dasharray: 5.55,2.4; stroke-dashoffset: 0; stroke: #c0c0c0; stroke-opacity: 0.6; stroke-width: 1.5"/>
   </g>
   <g id="line2d_25">
    <path d="M 216 333.790982 
L 1555.2 333.790982 
" clip-path="url(#p31f22b56d7)" style="fill: none; stroke-dasharray: 5.55,2.4; stroke-dashoffset: 0; stroke: #c0c0c0; stroke-opacity: 0.6; stroke-width: 1.5"/>
   </g>
   <g id="line2d_26">
    <path d="M 216 275.879313 
L 1555.2 275.879313 
" clip-path="url(#p31f22b56d7)" style="fill: none; stroke-dasharray: 5.55,2.4; stroke-dashoffset: 0; stroke: #c0c0c0; stroke-opacity: 0.6; stroke-width: 1.5"/>
   </g>
   <g id="line2d_27">
    <path d="M 216 222.871704 
L 1555.2 222.871704 
" clip-path="url(#p31f22b56d7)" style="fill: none; stroke-dasharray: 5.55,2.4; stroke-dashoffset: 0; stroke: #c0c0c0; stroke-opacity: 0.6; stroke-width: 1.5"/>
   </g>
   <g id="line2d_28">
    <path d="M 216 174.002043 
L 1555.2 174.002043 
" clip-path="url(#p31f22b56d7)" style="fill: none; stroke-dasharray: 5.55,2.4; stroke-dashoffset: 0; stroke: #c0c0c0; stroke-opacity: 0.6; stroke-width: 1.5"/>
   </g>
   <g id="line2d_29">
    <path d="M 216 128.670803 
L 1555.2 128.670803 
" clip-path="url(#p31f22b56d7)" style="fill: none; stroke-dasharray: 5.55,2.4; stroke-dashoffset: 0; stroke: #c0c0c0; stroke-opacity: 0.6; stroke-width: 1.5"/>
   </g>
   <g id="line2d_30">
    <path d="M 216 86.4 
L 1555.2 86.4 
" clip-path="url(#p31f22b56d7)" style="fill: none; stroke-dasharray: 5.55,2.4; stroke-dashoffset: 0; stroke: #c0c0c0; stroke-opacity: 0.6; stroke-width: 1.5"/>
   </g>
   <g id="patch_183">
    <path d="M 216 640.8 
L 216 86.4 
" style="fill: none; stroke: #000000; stroke-width: 0.8; stroke-linejoin: miter; stroke-linecap: square"/>
   </g>
   <g id="patch_184">
    <path d="M 1555.2 640.8 
L 1555.2 86.4 
" style="fill: none; stroke: #000000; stroke-width: 0.8; stroke-linejoin: miter; stroke-linecap: square"/>
   </g>
   <g id="patch_185">
    <path d="M 216 640.8 
L 1555.2 640.8 
" style="fill: none; stroke: #000000; stroke-width: 0.8; stroke-linejoin: miter; stroke-linecap: square"/>
   </g>
   <g id="patch_186">
    <path d="M 216 86.4 
L 1555.2 86.4 
" style="fill: none; stroke: #000000; stroke-width: 0.8; stroke-linejoin: miter; stroke-linecap: square"/>
   </g>
   <g id="text_23">
    <!-- Intel(R)Xeon(R)w5-3435X -->
    <g transform="translate(809.34 80.4) scale(0.12 -0.12)">
     <defs>
      <path id="DejaVuSans-49" d="M 628 4666 
L 1259 4666 
L 1259 0 
L 628 0 
L 628 4666 
z
" transform="scale(0.015625)"/>
      <path id="DejaVuSans-6c" d="M 603 4863 
L 1178 4863 
L 1178 0 
L 603 0 
L 603 4863 
z
" transform="scale(0.015625)"/>
      <path id="DejaVuSans-28" d="M 1984 4856 
Q 1566 4138 1362 3434 
Q 1159 2731 1159 2009 
Q 1159 1288 1364 580 
Q 1569 -128 1984 -844 
L 1484 -844 
Q 1016 -109 783 600 
Q 550 1309 550 2009 
Q 550 2706 781 3412 
Q 1013 4119 1484 4856 
L 1984 4856 
z
" transform="scale(0.015625)"/>
      <path id="DejaVuSans-52" d="M 2841 2188 
Q 3044 2119 3236 1894 
Q 3428 1669 3622 1275 
L 4263 0 
L 3584 0 
L 2988 1197 
Q 2756 1666 2539 1819 
Q 2322 1972 1947 1972 
L 1259 1972 
L 1259 0 
L 628 0 
L 628 4666 
L 2053 4666 
Q 2853 4666 3247 4331 
Q 3641 3997 3641 3322 
Q 3641 2881 3436 2590 
Q 3231 2300 2841 2188 
z
M 1259 4147 
L 1259 2491 
L 2053 2491 
Q 2509 2491 2742 2702 
Q 2975 2913 2975 3322 
Q 2975 3731 2742 3939 
Q 2509 4147 2053 4147 
L 1259 4147 
z
" transform="scale(0.015625)"/>
      <path id="DejaVuSans-29" d="M 513 4856 
L 1013 4856 
Q 1481 4119 1714 3412 
Q 1947 2706 1947 2009 
Q 1947 1309 1714 600 
Q 1481 -109 1013 -844 
L 513 -844 
Q 928 -128 1133 580 
Q 1338 1288 1338 2009 
Q 1338 2731 1133 3434 
Q 928 4138 513 4856 
z
" transform="scale(0.015625)"/>
      <path id="DejaVuSans-58" d="M 403 4666 
L 1081 4666 
L 2241 2931 
L 3406 4666 
L 4084 4666 
L 2584 2425 
L 4184 0 
L 3506 0 
L 2194 1984 
L 872 0 
L 191 0 
L 1856 2491 
L 403 4666 
z
" transform="scale(0.015625)"/>
      <path id="DejaVuSans-6f" d="M 1959 3097 
Q 1497 3097 1228 2736 
Q 959 2375 959 1747 
Q 959 1119 1226 758 
Q 1494 397 1959 397 
Q 2419 397 2687 759 
Q 2956 1122 2956 1747 
Q 2956 2369 2687 2733 
Q 2419 3097 1959 3097 
z
M 1959 3584 
Q 2709 3584 3137 3096 
Q 3566 2609 3566 1747 
Q 3566 888 3137 398 
Q 2709 -91 1959 -91 
Q 1206 -91 779 398 
Q 353 888 353 1747 
Q 353 2609 779 3096 
Q 1206 3584 1959 3584 
z
" transform="scale(0.015625)"/>
      <path id="DejaVuSans-77" d="M 269 3500 
L 844 3500 
L 1563 769 
L 2278 3500 
L 2956 3500 
L 3675 769 
L 4391 3500 
L 4966 3500 
L 4050 0 
L 3372 0 
L 2619 2869 
L 1863 0 
L 1184 0 
L 269 3500 
z
" transform="scale(0.015625)"/>
      <path id="DejaVuSans-2d" d="M 313 2009 
L 1997 2009 
L 1997 1497 
L 313 1497 
L 313 2009 
z
" transform="scale(0.015625)"/>
     </defs>
     <use xlink:href="#DejaVuSans-49"/>
     <use xlink:href="#DejaVuSans-6e" x="29.492188"/>
     <use xlink:href="#DejaVuSans-74" x="92.871094"/>
     <use xlink:href="#DejaVuSans-65" x="132.080078"/>
     <use xlink:href="#DejaVuSans-6c" x="193.603516"/>
     <use xlink:href="#DejaVuSans-28" x="221.386719"/>
     <use xlink:href="#DejaVuSans-52" x="260.400391"/>
     <use xlink:href="#DejaVuSans-29" x="329.882812"/>
     <use xlink:href="#DejaVuSans-58" x="368.896484"/>
     <use xlink:href="#DejaVuSans-65" x="432.902344"/>
     <use xlink:href="#DejaVuSans-6f" x="494.425781"/>
     <use xlink:href="#DejaVuSans-6e" x="555.607422"/>
     <use xlink:href="#DejaVuSans-28" x="618.986328"/>
     <use xlink:href="#DejaVuSans-52" x="658"/>
     <use xlink:href="#DejaVuSans-29" x="727.482422"/>
     <use xlink:href="#DejaVuSans-77" x="766.496094"/>
     <use xlink:href="#DejaVuSans-35" x="848.283203"/>
     <use xlink:href="#DejaVuSans-2d" x="911.90625"/>
     <use xlink:href="#DejaVuSans-33" x="947.990234"/>
     <use xlink:href="#DejaVuSans-34" x="1011.613281"/>
     <use xlink:href="#DejaVuSans-33" x="1075.236328"/>
     <use xlink:href="#DejaVuSans-35" x="1138.859375"/>
     <use xlink:href="#DejaVuSans-58" x="1202.482422"/>
    </g>
   </g>
   <g id="legend_1">
    <g id="patch_187">
     <path d="M 1433.90625 270.5375 
L 1548.2 270.5375 
Q 1550.2 270.5375 1550.2 268.5375 
L 1550.2 93.4 
Q 1550.2 91.4 1548.2 91.4 
L 1433.90625 91.4 
Q 1431.90625 91.4 1431.90625 93.4 
L 1431.90625 268.5375 
Q 1431.90625 270.5375 1433.90625 270.5375 
z
" style="fill: #ffffff; opacity: 0.8; stroke: #cccccc; stroke-linejoin: miter"/>
    </g>
    <g id="patch_188">
     <path d="M 1435.90625 102.998437 
L 1455.90625 102.998437 
L 1455.90625 95.998437 
L 1435.90625 95.998437 
z
" style="fill: #1f77b4"/>
    </g>
    <g id="text_24">
     <!-- clang-14-master -->
     <g transform="translate(1463.90625 102.998437) scale(0.1 -0.1)">
      <defs>
       <path id="DejaVuSans-63" d="M 3122 3366 
L 3122 2828 
Q 2878 2963 2633 3030 
Q 2388 3097 2138 3097 
Q 1578 3097 1268 2742 
Q 959 2388 959 1747 
Q 959 1106 1268 751 
Q 1578 397 2138 397 
Q 2388 397 2633 464 
Q 2878 531 3122 666 
L 3122 134 
Q 2881 22 2623 -34 
Q 2366 -91 2075 -91 
Q 1284 -91 818 406 
Q 353 903 353 1747 
Q 353 2603 823 3093 
Q 1294 3584 2113 3584 
Q 2378 3584 2631 3529 
Q 2884 3475 3122 3366 
z
" transform="scale(0.015625)"/>
       <path id="DejaVuSans-67" d="M 2906 1791 
Q 2906 2416 2648 2759 
Q 2391 3103 1925 3103 
Q 1463 3103 1205 2759 
Q 947 2416 947 1791 
Q 947 1169 1205 825 
Q 1463 481 1925 481 
Q 2391 481 2648 825 
Q 2906 1169 2906 1791 
z
M 3481 434 
Q 3481 -459 3084 -895 
Q 2688 -1331 1869 -1331 
Q 1566 -1331 1297 -1286 
Q 1028 -1241 775 -1147 
L 775 -588 
Q 1028 -725 1275 -790 
Q 1522 -856 1778 -856 
Q 2344 -856 2625 -561 
Q 2906 -266 2906 331 
L 2906 616 
Q 2728 306 2450 153 
Q 2172 0 1784 0 
Q 1141 0 747 490 
Q 353 981 353 1791 
Q 353 2603 747 3093 
Q 1141 3584 1784 3584 
Q 2172 3584 2450 3431 
Q 2728 3278 2906 2969 
L 2906 3500 
L 3481 3500 
L 3481 434 
z
" transform="scale(0.015625)"/>
       <path id="DejaVuSans-6d" d="M 3328 2828 
Q 3544 3216 3844 3400 
Q 4144 3584 4550 3584 
Q 5097 3584 5394 3201 
Q 5691 2819 5691 2113 
L 5691 0 
L 5113 0 
L 5113 2094 
Q 5113 2597 4934 2840 
Q 4756 3084 4391 3084 
Q 3944 3084 3684 2787 
Q 3425 2491 3425 1978 
L 3425 0 
L 2847 0 
L 2847 2094 
Q 2847 2600 2669 2842 
Q 2491 3084 2119 3084 
Q 1678 3084 1418 2786 
Q 1159 2488 1159 1978 
L 1159 0 
L 581 0 
L 581 3500 
L 1159 3500 
L 1159 2956 
Q 1356 3278 1631 3431 
Q 1906 3584 2284 3584 
Q 2666 3584 2933 3390 
Q 3200 3197 3328 2828 
z
" transform="scale(0.015625)"/>
      </defs>
      <use xlink:href="#DejaVuSans-63"/>
      <use xlink:href="#DejaVuSans-6c" x="54.980469"/>
      <use xlink:href="#DejaVuSans-61" x="82.763672"/>
      <use xlink:href="#DejaVuSans-6e" x="144.042969"/>
      <use xlink:href="#DejaVuSans-67" x="207.421875"/>
      <use xlink:href="#DejaVuSans-2d" x="270.898438"/>
      <use xlink:href="#DejaVuSans-31" x="306.982422"/>
      <use xlink:href="#DejaVuSans-34" x="370.605469"/>
      <use xlink:href="#DejaVuSans-2d" x="434.228516"/>
      <use xlink:href="#DejaVuSans-6d" x="470.3125"/>
      <use xlink:href="#DejaVuSans-61" x="567.724609"/>
      <use xlink:href="#DejaVuSans-73" x="629.003906"/>
      <use xlink:href="#DejaVuSans-74" x="681.103516"/>
      <use xlink:href="#DejaVuSans-65" x="720.3125"/>
      <use xlink:href="#DejaVuSans-72" x="781.835938"/>
     </g>
    </g>
    <g id="patch_189">
     <path d="M 1435.90625 117.676562 
L 1455.90625 117.676562 
L 1455.90625 110.676562 
L 1435.90625 110.676562 
z
" style="fill: url(#ha283a1aeda)"/>
    </g>
    <g id="text_25">
     <!-- clang-14-vector -->
     <g transform="translate(1463.90625 117.676562) scale(0.1 -0.1)">
      <defs>
       <path id="DejaVuSans-76" d="M 191 3500 
L 800 3500 
L 1894 563 
L 2988 3500 
L 3597 3500 
L 2284 0 
L 1503 0 
L 191 3500 
z
" transform="scale(0.015625)"/>
      </defs>
      <use xlink:href="#DejaVuSans-63"/>
      <use xlink:href="#DejaVuSans-6c" x="54.980469"/>
      <use xlink:href="#DejaVuSans-61" x="82.763672"/>
      <use xlink:href="#DejaVuSans-6e" x="144.042969"/>
      <use xlink:href="#DejaVuSans-67" x="207.421875"/>
      <use xlink:href="#DejaVuSans-2d" x="270.898438"/>
      <use xlink:href="#DejaVuSans-31" x="306.982422"/>
      <use xlink:href="#DejaVuSans-34" x="370.605469"/>
      <use xlink:href="#DejaVuSans-2d" x="434.228516"/>
      <use xlink:href="#DejaVuSans-76" x="467.6875"/>
      <use xlink:href="#DejaVuSans-65" x="526.867188"/>
      <use xlink:href="#DejaVuSans-63" x="588.390625"/>
      <use xlink:href="#DejaVuSans-74" x="643.371094"/>
      <use xlink:href="#DejaVuSans-6f" x="682.580078"/>
      <use xlink:href="#DejaVuSans-72" x="743.761719"/>
     </g>
    </g>
    <g id="patch_190">
     <path d="M 1435.90625 132.354687 
L 1455.90625 132.354687 
L 1455.90625 125.354687 
L 1435.90625 125.354687 
z
" style="fill: #2ca02c"/>
    </g>
    <g id="text_26">
     <!-- clang-16-master -->
     <g transform="translate(1463.90625 132.354687) scale(0.1 -0.1)">
      <use xlink:href="#DejaVuSans-63"/>
      <use xlink:href="#DejaVuSans-6c" x="54.980469"/>
      <use xlink:href="#DejaVuSans-61" x="82.763672"/>
      <use xlink:href="#DejaVuSans-6e" x="144.042969"/>
      <use xlink:href="#DejaVuSans-67" x="207.421875"/>
      <use xlink:href="#DejaVuSans-2d" x="270.898438"/>
      <use xlink:href="#DejaVuSans-31" x="306.982422"/>
      <use xlink:href="#DejaVuSans-36" x="370.605469"/>
      <use xlink:href="#DejaVuSans-2d" x="434.228516"/>
      <use xlink:href="#DejaVuSans-6d" x="470.3125"/>
      <use xlink:href="#DejaVuSans-61" x="567.724609"/>
      <use xlink:href="#DejaVuSans-73" x="629.003906"/>
      <use xlink:href="#DejaVuSans-74" x="681.103516"/>
      <use xlink:href="#DejaVuSans-65" x="720.3125"/>
      <use xlink:href="#DejaVuSans-72" x="781.835938"/>
     </g>
    </g>
    <g id="patch_191">
     <path d="M 1435.90625 147.032812 
L 1455.90625 147.032812 
L 1455.90625 140.032812 
L 1435.90625 140.032812 
z
" style="fill: url(#h92a15ac7d6)"/>
    </g>
    <g id="text_27">
     <!-- clang-16-vector -->
     <g transform="translate(1463.90625 147.032812) scale(0.1 -0.1)">
      <use xlink:href="#DejaVuSans-63"/>
      <use xlink:href="#DejaVuSans-6c" x="54.980469"/>
      <use xlink:href="#DejaVuSans-61" x="82.763672"/>
      <use xlink:href="#DejaVuSans-6e" x="144.042969"/>
      <use xlink:href="#DejaVuSans-67" x="207.421875"/>
      <use xlink:href="#DejaVuSans-2d" x="270.898438"/>
      <use xlink:href="#DejaVuSans-31" x="306.982422"/>
      <use xlink:href="#DejaVuSans-36" x="370.605469"/>
      <use xlink:href="#DejaVuSans-2d" x="434.228516"/>
      <use xlink:href="#DejaVuSans-76" x="467.6875"/>
      <use xlink:href="#DejaVuSans-65" x="526.867188"/>
      <use xlink:href="#DejaVuSans-63" x="588.390625"/>
      <use xlink:href="#DejaVuSans-74" x="643.371094"/>
      <use xlink:href="#DejaVuSans-6f" x="682.580078"/>
      <use xlink:href="#DejaVuSans-72" x="743.761719"/>
     </g>
    </g>
    <g id="patch_192">
     <path d="M 1435.90625 161.710937 
L 1455.90625 161.710937 
L 1455.90625 154.710937 
L 1435.90625 154.710937 
z
" style="fill: #9467bd"/>
    </g>
    <g id="text_28">
     <!-- gcc-10-master -->
     <g transform="translate(1463.90625 161.710937) scale(0.1 -0.1)">
      <use xlink:href="#DejaVuSans-67"/>
      <use xlink:href="#DejaVuSans-63" x="63.476562"/>
      <use xlink:href="#DejaVuSans-63" x="118.457031"/>
      <use xlink:href="#DejaVuSans-2d" x="173.4375"/>
      <use xlink:href="#DejaVuSans-31" x="209.521484"/>
      <use xlink:href="#DejaVuSans-30" x="273.144531"/>
      <use xlink:href="#DejaVuSans-2d" x="336.767578"/>
      <use xlink:href="#DejaVuSans-6d" x="372.851562"/>
      <use xlink:href="#DejaVuSans-61" x="470.263672"/>
      <use xlink:href="#DejaVuSans-73" x="531.542969"/>
      <use xlink:href="#DejaVuSans-74" x="583.642578"/>
      <use xlink:href="#DejaVuSans-65" x="622.851562"/>
      <use xlink:href="#DejaVuSans-72" x="684.375"/>
     </g>
    </g>
    <g id="patch_193">
     <path d="M 1435.90625 176.389062 
L 1455.90625 176.389062 
L 1455.90625 169.389062 
L 1435.90625 169.389062 
z
" style="fill: url(#hfc478f43ca)"/>
    </g>
    <g id="text_29">
     <!-- gcc-10-vector -->
     <g transform="translate(1463.90625 176.389062) scale(0.1 -0.1)">
      <use xlink:href="#DejaVuSans-67"/>
      <use xlink:href="#DejaVuSans-63" x="63.476562"/>
      <use xlink:href="#DejaVuSans-63" x="118.457031"/>
      <use xlink:href="#DejaVuSans-2d" x="173.4375"/>
      <use xlink:href="#DejaVuSans-31" x="209.521484"/>
      <use xlink:href="#DejaVuSans-30" x="273.144531"/>
      <use xlink:href="#DejaVuSans-2d" x="336.767578"/>
      <use xlink:href="#DejaVuSans-76" x="370.226562"/>
      <use xlink:href="#DejaVuSans-65" x="429.40625"/>
      <use xlink:href="#DejaVuSans-63" x="490.929688"/>
      <use xlink:href="#DejaVuSans-74" x="545.910156"/>
      <use xlink:href="#DejaVuSans-6f" x="585.119141"/>
      <use xlink:href="#DejaVuSans-72" x="646.300781"/>
     </g>
    </g>
    <g id="patch_194">
     <path d="M 1435.90625 191.067187 
L 1455.90625 191.067187 
L 1455.90625 184.067187 
L 1435.90625 184.067187 
z
" style="fill: #e377c2"/>
    </g>
    <g id="text_30">
     <!-- gcc-11-master -->
     <g transform="translate(1463.90625 191.067187) scale(0.1 -0.1)">
      <use xlink:href="#DejaVuSans-67"/>
      <use xlink:href="#DejaVuSans-63" x="63.476562"/>
      <use xlink:href="#DejaVuSans-63" x="118.457031"/>
      <use xlink:href="#DejaVuSans-2d" x="173.4375"/>
      <use xlink:href="#DejaVuSans-31" x="209.521484"/>
      <use xlink:href="#DejaVuSans-31" x="273.144531"/>
      <use xlink:href="#DejaVuSans-2d" x="336.767578"/>
      <use xlink:href="#DejaVuSans-6d" x="372.851562"/>
      <use xlink:href="#DejaVuSans-61" x="470.263672"/>
      <use xlink:href="#DejaVuSans-73" x="531.542969"/>
      <use xlink:href="#DejaVuSans-74" x="583.642578"/>
      <use xlink:href="#DejaVuSans-65" x="622.851562"/>
      <use xlink:href="#DejaVuSans-72" x="684.375"/>
     </g>
    </g>
    <g id="patch_195">
     <path d="M 1435.90625 205.745312 
L 1455.90625 205.745312 
L 1455.90625 198.745312 
L 1435.90625 198.745312 
z
" style="fill: url(#hae1960f483)"/>
    </g>
    <g id="text_31">
     <!-- gcc-11-vector -->
     <g transform="translate(1463.90625 205.745312) scale(0.1 -0.1)">
      <use xlink:href="#DejaVuSans-67"/>
      <use xlink:href="#DejaVuSans-63" x="63.476562"/>
      <use xlink:href="#DejaVuSans-63" x="118.457031"/>
      <use xlink:href="#DejaVuSans-2d" x="173.4375"/>
      <use xlink:href="#DejaVuSans-31" x="209.521484"/>
      <use xlink:href="#DejaVuSans-31" x="273.144531"/>
      <use xlink:href="#DejaVuSans-2d" x="336.767578"/>
      <use xlink:href="#DejaVuSans-76" x="370.226562"/>
      <use xlink:href="#DejaVuSans-65" x="429.40625"/>
      <use xlink:href="#DejaVuSans-63" x="490.929688"/>
      <use xlink:href="#DejaVuSans-74" x="545.910156"/>
      <use xlink:href="#DejaVuSans-6f" x="585.119141"/>
      <use xlink:href="#DejaVuSans-72" x="646.300781"/>
     </g>
    </g>
    <g id="patch_196">
     <path d="M 1435.90625 220.423437 
L 1455.90625 220.423437 
L 1455.90625 213.423437 
L 1435.90625 213.423437 
z
" style="fill: #bcbd22"/>
    </g>
    <g id="text_32">
     <!-- gcc-12-master -->
     <g transform="translate(1463.90625 220.423437) scale(0.1 -0.1)">
      <use xlink:href="#DejaVuSans-67"/>
      <use xlink:href="#DejaVuSans-63" x="63.476562"/>
      <use xlink:href="#DejaVuSans-63" x="118.457031"/>
      <use xlink:href="#DejaVuSans-2d" x="173.4375"/>
      <use xlink:href="#DejaVuSans-31" x="209.521484"/>
      <use xlink:href="#DejaVuSans-32" x="273.144531"/>
      <use xlink:href="#DejaVuSans-2d" x="336.767578"/>
      <use xlink:href="#DejaVuSans-6d" x="372.851562"/>
      <use xlink:href="#DejaVuSans-61" x="470.263672"/>
      <use xlink:href="#DejaVuSans-73" x="531.542969"/>
      <use xlink:href="#DejaVuSans-74" x="583.642578"/>
      <use xlink:href="#DejaVuSans-65" x="622.851562"/>
      <use xlink:href="#DejaVuSans-72" x="684.375"/>
     </g>
    </g>
    <g id="patch_197">
     <path d="M 1435.90625 235.101562 
L 1455.90625 235.101562 
L 1455.90625 228.101562 
L 1435.90625 228.101562 
z
" style="fill: url(#hef6a94a57c)"/>
    </g>
    <g id="text_33">
     <!-- gcc-12-vector -->
     <g transform="translate(1463.90625 235.101562) scale(0.1 -0.1)">
      <use xlink:href="#DejaVuSans-67"/>
      <use xlink:href="#DejaVuSans-63" x="63.476562"/>
      <use xlink:href="#DejaVuSans-63" x="118.457031"/>
      <use xlink:href="#DejaVuSans-2d" x="173.4375"/>
      <use xlink:href="#DejaVuSans-31" x="209.521484"/>
      <use xlink:href="#DejaVuSans-32" x="273.144531"/>
      <use xlink:href="#DejaVuSans-2d" x="336.767578"/>
      <use xlink:href="#DejaVuSans-76" x="370.226562"/>
      <use xlink:href="#DejaVuSans-65" x="429.40625"/>
      <use xlink:href="#DejaVuSans-63" x="490.929688"/>
      <use xlink:href="#DejaVuSans-74" x="545.910156"/>
      <use xlink:href="#DejaVuSans-6f" x="585.119141"/>
      <use xlink:href="#DejaVuSans-72" x="646.300781"/>
     </g>
    </g>
    <g id="patch_198">
     <path d="M 1435.90625 249.779687 
L 1455.90625 249.779687 
L 1455.90625 242.779687 
L 1435.90625 242.779687 
z
" style="fill: #1f77b4"/>
    </g>
    <g id="text_34">
     <!-- gcc-13-master -->
     <g transform="translate(1463.90625 249.779687) scale(0.1 -0.1)">
      <use xlink:href="#DejaVuSans-67"/>
      <use xlink:href="#DejaVuSans-63" x="63.476562"/>
      <use xlink:href="#DejaVuSans-63" x="118.457031"/>
      <use xlink:href="#DejaVuSans-2d" x="173.4375"/>
      <use xlink:href="#DejaVuSans-31" x="209.521484"/>
      <use xlink:href="#DejaVuSans-33" x="273.144531"/>
      <use xlink:href="#DejaVuSans-2d" x="336.767578"/>
      <use xlink:href="#DejaVuSans-6d" x="372.851562"/>
      <use xlink:href="#DejaVuSans-61" x="470.263672"/>
      <use xlink:href="#DejaVuSans-73" x="531.542969"/>
      <use xlink:href="#DejaVuSans-74" x="583.642578"/>
      <use xlink:href="#DejaVuSans-65" x="622.851562"/>
      <use xlink:href="#DejaVuSans-72" x="684.375"/>
     </g>
    </g>
    <g id="patch_199">
     <path d="M 1435.90625 264.457812 
L 1455.90625 264.457812 
L 1455.90625 257.457812 
L 1435.90625 257.457812 
z
" style="fill: url(#ha283a1aeda)"/>
    </g>
    <g id="text_35">
     <!-- gcc-13-vector -->
     <g transform="translate(1463.90625 264.457812) scale(0.1 -0.1)">
      <use xlink:href="#DejaVuSans-67"/>
      <use xlink:href="#DejaVuSans-63" x="63.476562"/>
      <use xlink:href="#DejaVuSans-63" x="118.457031"/>
      <use xlink:href="#DejaVuSans-2d" x="173.4375"/>
      <use xlink:href="#DejaVuSans-31" x="209.521484"/>
      <use xlink:href="#DejaVuSans-33" x="273.144531"/>
      <use xlink:href="#DejaVuSans-2d" x="336.767578"/>
      <use xlink:href="#DejaVuSans-76" x="370.226562"/>
      <use xlink:href="#DejaVuSans-65" x="429.40625"/>
      <use xlink:href="#DejaVuSans-63" x="490.929688"/>
      <use xlink:href="#DejaVuSans-74" x="545.910156"/>
      <use xlink:href="#DejaVuSans-6f" x="585.119141"/>
      <use xlink:href="#DejaVuSans-72" x="646.300781"/>
     </g>
    </g>
   </g>
  </g>
 </g>
 <defs>
  <clipPath id="p31f22b56d7">
   <rect x="216" y="86.4" width="1339.2" height="554.4"/>
  </clipPath>
 </defs>
 <defs>
  <pattern id="ha283a1aeda" patternUnits="userSpaceOnUse" x="0" y="0" width="72" height="72">
   <rect x="0" y="0" width="73" height="73" fill="#ff7f0e"/>
   <path d="M -36 36 
L 36 -36 
M -24 48 
L 48 -24 
M -12 60 
L 60 -12 
M 0 72 
L 72 0 
M 12 84 
L 84 12 
M 24 96 
L 96 24 
M 36 108 
L 108 36 
" style="fill: #000000; stroke: #000000; stroke-width: 1.0; stroke-linecap: butt; stroke-linejoin: miter"/>
  </pattern>
  <pattern id="h92a15ac7d6" patternUnits="userSpaceOnUse" x="0" y="0" width="72" height="72">
   <rect x="0" y="0" width="73" height="73" fill="#d62728"/>
   <path d="M -36 36 
L 36 -36 
M -24 48 
L 48 -24 
M -12 60 
L 60 -12 
M 0 72 
L 72 0 
M 12 84 
L 84 12 
M 24 96 
L 96 24 
M 36 108 
L 108 36 
" style="fill: #000000; stroke: #000000; stroke-width: 1.0; stroke-linecap: butt; stroke-linejoin: miter"/>
  </pattern>
  <pattern id="hfc478f43ca" patternUnits="userSpaceOnUse" x="0" y="0" width="72" height="72">
   <rect x="0" y="0" width="73" height="73" fill="#8c564b"/>
   <path d="M -36 36 
L 36 -36 
M -24 48 
L 48 -24 
M -12 60 
L 60 -12 
M 0 72 
L 72 0 
M 12 84 
L 84 12 
M 24 96 
L 96 24 
M 36 108 
L 108 36 
" style="fill: #000000; stroke: #000000; stroke-width: 1.0; stroke-linecap: butt; stroke-linejoin: miter"/>
  </pattern>
  <pattern id="hae1960f483" patternUnits="userSpaceOnUse" x="0" y="0" width="72" height="72">
   <rect x="0" y="0" width="73" height="73" fill="#7f7f7f"/>
   <path d="M -36 36 
L 36 -36 
M -24 48 
L 48 -24 
M -12 60 
L 60 -12 
M 0 72 
L 72 0 
M 12 84 
L 84 12 
M 24 96 
L 96 24 
M 36 108 
L 108 36 
" style="fill: #000000; stroke: #000000; stroke-width: 1.0; stroke-linecap: butt; stroke-linejoin: miter"/>
  </pattern>
  <pattern id="hef6a94a57c" patternUnits="userSpaceOnUse" x="0" y="0" width="72" height="72">
   <rect x="0" y="0" width="73" height="73" fill="#17becf"/>
   <path d="M -36 36 
L 36 -36 
M -24 48 
L 48 -24 
M -12 60 
L 60 -12 
M 0 72 
L 72 0 
M 12 84 
L 84 12 
M 24 96 
L 96 24 
M 36 108 
L 108 36 
" style="fill: #000000; stroke: #000000; stroke-width: 1.0; stroke-linecap: butt; stroke-linejoin: miter"/>
  </pattern>
 </defs>
</svg>
